<svg version="1.1" xmlns="http://www.w3.org/2000/svg" xmlns:xlink="http://www.w3.org/1999/xlink" xmlns:ev="http://www.w3.org/2001/xml-events" width="375.0" height="398.0" viewBox="0 0 375.0 398.0"><path d="M 257.0,235.0 260.0,235.0 258.0,237.0 261.0,237.0 259.0,239.0 261.0,239.0 259.0,241.0 263.0,241.0 263.0,245.0 264.0,245.0 261.0,247.0 262.0,247.0 263.0,251.0 264.0,251.0 261.0,253.0 262.0,253.0 261.0,257.0 265.0,257.0 263.0,259.0 265.0,259.0 263.0,261.0 272.0,261.0 265.0,263.0 277.0,263.0 238.0,265.0 264.0,265.0 237.0,267.0 277.0,267.0 242.0,269.0 274.0,269.0 211.0,271.0 267.0,271.0 191.0,273.0 210.0,273.0 170.0,275.0 267.0,275.0 168.0,277.0 263.0,277.0 163.0,279.0 283.0,279.0 161.0,283.0 284.0,283.0 158.0,285.0 281.0,285.0 188.0,287.0 280.0,287.0 157.0,289.0 248.0,289.0 156.0,291.0 240.0,291.0 155.0,293.0 272.0,293.0 155.0,295.0 278.0,295.0 154.0,297.0 278.0,297.0 151.0,299.0 283.0,299.0 151.0,301.0 283.0,301.0 267.0,303.0 283.0,303.0 151.0,305.0 266.0,305.0 154.0,307.0 247.0,307.0 154.0,309.0 209.0,309.0 193.0,311.0 204.0,311.0 197.0,313.0 200.0,313.0 198.0,317.0 282.0,317.0 199.0,319.0 282.0,319.0 204.0,321.0 282.0,321.0 281.0,323.0 282.0,323.0 204.0,325.0 280.0,325.0 205.0,327.0 272.0,327.0 205.0,329.0 261.0,329.0 206.0,331.0 280.0,331.0 208.0,333.0 278.0,333.0 208.0,335.0 277.0,335.0 209.0,337.0 275.0,337.0 210.0,339.0 273.0,339.0 210.0,341.0 273.0,341.0 211.0,343.0 272.0,343.0 211.0,345.0 263.0,345.0" fill="none" stroke="#4612d7" stroke-width="3" /><path d="M 162.0,381.0 204.0,381.0 168.0,383.0 203.0,383.0 172.0,385.0 202.0,385.0" fill="none" stroke="#706562" stroke-width="3" /><path d="M 174.0,311.0 188.0,311.0 166.0,313.0 188.0,313.0 143.0,315.0 177.0,315.0 158.0,317.0 195.0,317.0 144.0,319.0 197.0,319.0 129.0,321.0 202.0,321.0 139.0,323.0 202.0,323.0 201.0,327.0 203.0,327.0" fill="none" stroke="#706562" stroke-width="3" /><path d="M 347.0,287.0 360.0,287.0 317.0,289.0 345.0,289.0 313.0,291.0 360.0,291.0 313.0,293.0 360.0,293.0 314.0,295.0 362.0,295.0 313.0,297.0 362.0,297.0 313.0,299.0 363.0,299.0 312.0,301.0 363.0,301.0 312.0,303.0 356.0,303.0 293.0,307.0 355.0,307.0 290.0,309.0 367.0,309.0 290.0,311.0 367.0,311.0 246.0,313.0 370.0,313.0 204.0,315.0 370.0,315.0 282.0,317.0 369.0,317.0 367.0,319.0 369.0,319.0 283.0,321.0 304.0,321.0 305.0,323.0 367.0,323.0 305.0,325.0 365.0,325.0 305.0,327.0 363.0,327.0 295.0,329.0 363.0,329.0 284.0,331.0 358.0,331.0 284.0,333.0 352.0,333.0 288.0,335.0 349.0,335.0 292.0,337.0 336.0,337.0 288.0,339.0 349.0,339.0 285.0,341.0 355.0,341.0 279.0,343.0 355.0,343.0 288.0,345.0 353.0,345.0 292.0,347.0 353.0,347.0 295.0,351.0 348.0,351.0" fill="none" stroke="#706562" stroke-width="3" /><path d="M 239.0,138.0 284.0,138.0 262.0,140.0 270.0,140.0 234.0,142.0 289.0,142.0 235.0,150.0 289.0,150.0 222.0,152.0 288.0,152.0 219.0,154.0 287.0,154.0 188.0,156.0 286.0,156.0 184.0,158.0 285.0,158.0 198.0,160.0 283.0,160.0 209.0,162.0 274.0,162.0 198.0,164.0 283.0,164.0 198.0,166.0 281.0,166.0 190.0,168.0 267.0,168.0 178.0,170.0 280.0,170.0 184.0,172.0 206.0,172.0 207.0,174.0 276.0,174.0 184.0,176.0 276.0,176.0 184.0,178.0 274.0,178.0 181.0,180.0 263.0,180.0 179.0,182.0 228.0,182.0 176.0,184.0 212.0,184.0 173.0,186.0 192.0,186.0 173.0,188.0 189.0,188.0 167.0,190.0 186.0,190.0 167.0,194.0 174.0,194.0 164.0,196.0 167.0,196.0 148.0,198.0 174.0,198.0 143.0,200.0 147.0,200.0 139.0,202.0 164.0,202.0 140.0,204.0 140.0,204.0 141.0,206.0 165.0,206.0 139.0,208.0 243.0,208.0 124.0,210.0 239.0,210.0 123.0,212.0 237.0,212.0 123.0,214.0 231.0,214.0 120.0,216.0 231.0,216.0 147.0,218.0 227.0,218.0 120.0,220.0 222.0,220.0 119.0,222.0 218.0,222.0 118.0,224.0 216.0,224.0 210.0,226.0 212.0,226.0 206.0,228.0 209.0,228.0 201.0,230.0 205.0,230.0 117.0,232.0 199.0,232.0 180.0,234.0 192.0,234.0 179.0,236.0 179.0,236.0 180.0,238.0 193.0,238.0 117.0,240.0 180.0,240.0 140.0,242.0 171.0,242.0 127.0,244.0 153.0,244.0 117.0,246.0 148.0,246.0 117.0,248.0 149.0,248.0 120.0,250.0 143.0,250.0" fill="none" stroke="#706562" stroke-width="3" /><path d="M 132.0,110.0 132.0,110.0 130.0,112.0 133.0,112.0 130.0,114.0 135.0,114.0 129.0,116.0 136.0,116.0 128.0,118.0 137.0,118.0 121.0,120.0 139.0,120.0 114.0,122.0 139.0,122.0 103.0,124.0 135.0,124.0 93.0,126.0 125.0,126.0 88.0,128.0 148.0,128.0 87.0,130.0 148.0,130.0 93.0,132.0 151.0,132.0 95.0,134.0 150.0,134.0 96.0,136.0 109.0,136.0 110.0,138.0 150.0,138.0 96.0,140.0 136.0,140.0 106.0,142.0 133.0,142.0 97.0,144.0 149.0,144.0 134.0,146.0 152.0,146.0 97.0,148.0 152.0,148.0 100.0,150.0 155.0,150.0 101.0,152.0 153.0,152.0 128.0,154.0 155.0,154.0 112.0,156.0 154.0,156.0 70.0,158.0 181.0,158.0" fill="none" stroke="#397451" stroke-width="3" /><path d="M 92.0,108.0 127.0,108.0 97.0,110.0 122.0,110.0 92.0,112.0 127.0,112.0" fill="none" stroke="#397451" stroke-width="3" /><path d="M 157.0,63.0 183.0,63.0 155.0,65.0 188.0,65.0 155.0,67.0 190.0,67.0 166.0,69.0 194.0,69.0 156.0,71.0 197.0,71.0 155.0,73.0 198.0,73.0 155.0,75.0 187.0,75.0 181.0,77.0 198.0,77.0 176.0,79.0 194.0,79.0 168.0,81.0 187.0,81.0 161.0,83.0 180.0,83.0 156.0,85.0 173.0,85.0 172.0,87.0 212.0,87.0 156.0,89.0 213.0,89.0 199.0,91.0 215.0,91.0 157.0,93.0 216.0,93.0 158.0,95.0 217.0,95.0 159.0,97.0 219.0,97.0 159.0,101.0 220.0,101.0 160.0,103.0 221.0,103.0 171.0,105.0 222.0,105.0 162.0,107.0 223.0,107.0 224.0,109.0 224.0,109.0 163.0,111.0 226.0,111.0 225.0,113.0 225.0,113.0 165.0,115.0 226.0,115.0 168.0,117.0 227.0,117.0 168.0,119.0 228.0,119.0 178.0,121.0 220.0,121.0 169.0,123.0 228.0,123.0 174.0,125.0 226.0,125.0 187.0,127.0 227.0,127.0 188.0,129.0 233.0,129.0 230.0,131.0 230.0,131.0 206.0,133.0 235.0,133.0 199.0,135.0 225.0,135.0 206.0,137.0 219.0,137.0 205.0,139.0 231.0,139.0 208.0,141.0 229.0,141.0 208.0,143.0 214.0,143.0 216.0,145.0 229.0,145.0 211.0,147.0 224.0,147.0 205.0,149.0 215.0,149.0 217.0,151.0 221.0,151.0 209.0,153.0 220.0,153.0 204.0,155.0 217.0,155.0 205.0,157.0 212.0,157.0" fill="none" stroke="#397451" stroke-width="3" /><path d="M 129.0,322.0 304.0,322.0 129.0,324.0 304.0,324.0 126.0,326.0 296.0,326.0 126.0,328.0 304.0,328.0 146.0,330.0 293.0,330.0 126.0,332.0 283.0,332.0 125.0,334.0 287.0,334.0 124.0,336.0 287.0,336.0 207.0,338.0 283.0,338.0 124.0,340.0 287.0,340.0 137.0,342.0 283.0,342.0 126.0,344.0 287.0,344.0 124.0,346.0 291.0,346.0 124.0,350.0 294.0,350.0 294.0,352.0 348.0,352.0 125.0,354.0 293.0,354.0 125.0,356.0 182.0,356.0 127.0,358.0 183.0,358.0 127.0,360.0 348.0,360.0 128.0,362.0 347.0,362.0 129.0,364.0 343.0,364.0 132.0,366.0 343.0,366.0 132.0,368.0 335.0,368.0 134.0,370.0 335.0,370.0 135.0,372.0 331.0,372.0 139.0,374.0 328.0,374.0 139.0,376.0 319.0,376.0 143.0,378.0 278.0,378.0 143.0,380.0 244.0,380.0 147.0,382.0 166.0,382.0 151.0,384.0 170.0,384.0 156.0,386.0 201.0,386.0 159.0,390.0 161.0,390.0 162.0,392.0 167.0,392.0 168.0,394.0 201.0,394.0 173.0,396.0 198.0,396.0 185.0,398.0 193.0,398.0" fill="none" stroke="#7d863f" stroke-width="3" /><path d="M 357.0,302.0 371.0,302.0 356.0,304.0 372.0,304.0 356.0,308.0 374.0,308.0 374.0,310.0 375.0,310.0 368.0,312.0 371.0,312.0 370.0,316.0 371.0,316.0 370.0,318.0 375.0,318.0 368.0,320.0 375.0,320.0 366.0,324.0 375.0,324.0 364.0,326.0 365.0,326.0 364.0,328.0 372.0,328.0 359.0,330.0 371.0,330.0 353.0,332.0 369.0,332.0 350.0,334.0 368.0,334.0 350.0,336.0 368.0,336.0 350.0,338.0 364.0,338.0 350.0,340.0 364.0,340.0 362.0,342.0 363.0,342.0 356.0,344.0 360.0,344.0" fill="none" stroke="#7d863f" stroke-width="3" /><path d="M 285.0,299.0 312.0,299.0 288.0,301.0 308.0,301.0 285.0,303.0 311.0,303.0 268.0,305.0 311.0,305.0 248.0,307.0 291.0,307.0 211.0,309.0 289.0,309.0 205.0,311.0 289.0,311.0" fill="none" stroke="#7d863f" stroke-width="3" /><path d="M 277.0,269.0 284.0,269.0 269.0,271.0 312.0,271.0 286.0,273.0 333.0,273.0 269.0,275.0 339.0,275.0 268.0,277.0 356.0,277.0 285.0,279.0 359.0,279.0 355.0,281.0 355.0,281.0 286.0,283.0 359.0,283.0 283.0,285.0 359.0,285.0 282.0,287.0 345.0,287.0 250.0,289.0 321.0,289.0 249.0,291.0 312.0,291.0 275.0,293.0 302.0,293.0 285.0,295.0 296.0,295.0 280.0,297.0 283.0,297.0" fill="none" stroke="#7d863f" stroke-width="3" /><path d="M 106.0,216.0 119.0,216.0 108.0,218.0 116.0,218.0 106.0,220.0 119.0,220.0 109.0,222.0 118.0,222.0" fill="none" stroke="#7d863f" stroke-width="3" /><path d="M 241.0,181.0 275.0,181.0 230.0,183.0 240.0,183.0 214.0,185.0 275.0,185.0 194.0,187.0 273.0,187.0 190.0,189.0 252.0,189.0 178.0,191.0 190.0,191.0 175.0,193.0 270.0,193.0 243.0,195.0 265.0,195.0 198.0,197.0 243.0,197.0 175.0,199.0 265.0,199.0 167.0,201.0 258.0,201.0 179.0,203.0 246.0,203.0 167.0,205.0 258.0,205.0 246.0,207.0 257.0,207.0 251.0,209.0 253.0,209.0 241.0,211.0 250.0,211.0 251.0,213.0 252.0,213.0 233.0,215.0 258.0,215.0 233.0,217.0 260.0,217.0 229.0,219.0 260.0,219.0 224.0,221.0 265.0,221.0 220.0,223.0 265.0,223.0 266.0,225.0 270.0,225.0 214.0,227.0 270.0,227.0 211.0,229.0 258.0,229.0 207.0,231.0 270.0,231.0 201.0,233.0 276.0,233.0 194.0,235.0 276.0,235.0 194.0,237.0 274.0,237.0 195.0,239.0 278.0,239.0 182.0,241.0 274.0,241.0 173.0,243.0 280.0,243.0 155.0,245.0 280.0,245.0 150.0,247.0 276.0,247.0 152.0,249.0 280.0,249.0 154.0,251.0 281.0,251.0 119.0,253.0 279.0,253.0 119.0,255.0 275.0,255.0 123.0,257.0 277.0,257.0 122.0,259.0 277.0,259.0 146.0,261.0 232.0,261.0 138.0,263.0 208.0,263.0 142.0,265.0 186.0,265.0 133.0,267.0 168.0,267.0 133.0,269.0 236.0,269.0 151.0,271.0 209.0,271.0 132.0,273.0 189.0,273.0 130.0,275.0 168.0,275.0 129.0,277.0 166.0,277.0 128.0,279.0 158.0,279.0 159.0,281.0 161.0,281.0 154.0,283.0 159.0,283.0 152.0,285.0 156.0,285.0 136.0,287.0 151.0,287.0 128.0,289.0 155.0,289.0 129.0,291.0 154.0,291.0 133.0,293.0 150.0,293.0 129.0,295.0 153.0,295.0 134.0,297.0 152.0,297.0 134.0,299.0 149.0,299.0 133.0,301.0 146.0,301.0 129.0,303.0 149.0,303.0 132.0,305.0 146.0,305.0 129.0,307.0 135.0,307.0 136.0,309.0 152.0,309.0 139.0,311.0 172.0,311.0 139.0,313.0 164.0,313.0" fill="none" stroke="#7d863f" stroke-width="3" /><path d="M 70.0,159.0 181.0,159.0 102.0,161.0 196.0,161.0 164.0,163.0 164.0,163.0 70.0,165.0 196.0,165.0 71.0,167.0 164.0,167.0 165.0,169.0 176.0,169.0 71.0,171.0 176.0,171.0 72.0,173.0 182.0,173.0 72.0,175.0 154.0,175.0 74.0,177.0 182.0,177.0 75.0,181.0 177.0,181.0 102.0,183.0 174.0,183.0 77.0,185.0 171.0,185.0 79.0,187.0 171.0,187.0 79.0,189.0 147.0,189.0 82.0,191.0 102.0,191.0 82.0,193.0 165.0,193.0 85.0,195.0 162.0,195.0 143.0,197.0 146.0,197.0 85.0,199.0 141.0,199.0 87.0,201.0 137.0,201.0 89.0,203.0 137.0,203.0 89.0,205.0 124.0,205.0 91.0,207.0 137.0,207.0" fill="none" stroke="#7d863f" stroke-width="3" /><path d="M 227.0,113.0 262.0,113.0 228.0,115.0 274.0,115.0 229.0,117.0 281.0,117.0 230.0,119.0 285.0,119.0 284.0,123.0 286.0,123.0 228.0,125.0 283.0,125.0 228.0,127.0 293.0,127.0 235.0,129.0 286.0,129.0 232.0,131.0 293.0,131.0 237.0,133.0 295.0,133.0 233.0,135.0 292.0,135.0 293.0,137.0 295.0,137.0 293.0,139.0 297.0,139.0 295.0,141.0 296.0,141.0 294.0,143.0 296.0,143.0 294.0,145.0 294.0,145.0 292.0,147.0 294.0,147.0 293.0,149.0 293.0,149.0 291.0,151.0 292.0,151.0 291.0,153.0 293.0,153.0 287.0,155.0 291.0,155.0 286.0,157.0 290.0,157.0 286.0,159.0 289.0,159.0 284.0,161.0 288.0,161.0 284.0,163.0 286.0,163.0" fill="none" stroke="#7d863f" stroke-width="3" /><path d="M 76.0,112.0 90.0,112.0 90.0,114.0 128.0,114.0 76.0,116.0 114.0,116.0 73.0,118.0 104.0,118.0 71.0,120.0 120.0,120.0 82.0,122.0 112.0,122.0 71.0,124.0 101.0,124.0 76.0,126.0 91.0,126.0 73.0,128.0 75.0,128.0 70.0,130.0 85.0,130.0 76.0,132.0 92.0,132.0 70.0,134.0 92.0,134.0" fill="none" stroke="#7d863f" stroke-width="3" /><path d="M 190.0,65.0 239.0,65.0 192.0,67.0 239.0,67.0 196.0,69.0 242.0,69.0 198.0,71.0 230.0,71.0 200.0,73.0 245.0,73.0 203.0,75.0 239.0,75.0 196.0,77.0 248.0,77.0 191.0,79.0 248.0,79.0 184.0,81.0 232.0,81.0 177.0,83.0 251.0,83.0 172.0,85.0 251.0,85.0 214.0,87.0 231.0,87.0 227.0,89.0 255.0,89.0 218.0,91.0 246.0,91.0 218.0,93.0 238.0,93.0 227.0,95.0 255.0,95.0 221.0,97.0 258.0,97.0 222.0,99.0 258.0,99.0 222.0,101.0 260.0,101.0 223.0,103.0 251.0,103.0 233.0,105.0 260.0,105.0 225.0,107.0 251.0,107.0" fill="none" stroke="#7d863f" stroke-width="3" /><path d="M 116.0,24.0 116.0,24.0 114.0,26.0 117.0,26.0 112.0,28.0 117.0,28.0 109.0,30.0 116.0,30.0 108.0,32.0 116.0,32.0 108.0,36.0 117.0,36.0 108.0,38.0 186.0,38.0 87.0,40.0 200.0,40.0 82.0,42.0 206.0,42.0 77.0,44.0 211.0,44.0 73.0,46.0 217.0,46.0 73.0,48.0 217.0,48.0 73.0,50.0 225.0,50.0 67.0,52.0 227.0,52.0 66.0,54.0 230.0,54.0 65.0,56.0 65.0,56.0 64.0,58.0 230.0,58.0 63.0,60.0 187.0,60.0 62.0,62.0 184.0,62.0 62.0,64.0 155.0,64.0 61.0,66.0 130.0,66.0 94.0,68.0 153.0,68.0 73.0,70.0 141.0,70.0 61.0,72.0 152.0,72.0 63.0,74.0 153.0,74.0 121.0,76.0 185.0,76.0 103.0,78.0 179.0,78.0 88.0,80.0 173.0,80.0 83.0,82.0 166.0,82.0 104.0,84.0 159.0,84.0 84.0,86.0 141.0,86.0 76.0,88.0 154.0,88.0 86.0,90.0 144.0,90.0 75.0,92.0 155.0,92.0 96.0,94.0 156.0,94.0 75.0,96.0 157.0,96.0 74.0,98.0 136.0,98.0 74.0,100.0 157.0,100.0 75.0,102.0 158.0,102.0 92.0,104.0 160.0,104.0 75.0,106.0 160.0,106.0 139.0,108.0 161.0,108.0 133.0,110.0 161.0,110.0 147.0,112.0 163.0,112.0 142.0,114.0 163.0,114.0 138.0,116.0 164.0,116.0 148.0,118.0 166.0,118.0 141.0,120.0 160.0,120.0 161.0,122.0 167.0,122.0 137.0,124.0 167.0,124.0 137.0,126.0 172.0,126.0 149.0,128.0 186.0,128.0 152.0,132.0 202.0,132.0 174.0,134.0 204.0,134.0 154.0,136.0 204.0,136.0 154.0,138.0 204.0,138.0" fill="none" stroke="#7d863f" stroke-width="3" /><path d="M 146.0,202.0 166.0,202.0 141.0,204.0 166.0,204.0" fill="none" stroke="#9636b9" stroke-width="3" /></svg>