<svg version="1.1" xmlns="http://www.w3.org/2000/svg" xmlns:xlink="http://www.w3.org/1999/xlink" xmlns:ev="http://www.w3.org/2001/xml-events" width="586.0" height="639.0" viewBox="0 0 586.0 639.0"><path d="M 342.0,491.0 453.0,491.0 453.0,493.0 480.0,493.0 342.0,495.0 480.0,495.0 343.0,497.0 482.0,497.0 456.0,499.0 483.0,499.0 475.0,505.0 476.0,505.0 471.0,507.0 479.0,507.0 467.0,509.0 494.0,509.0 464.0,515.0 557.0,515.0 557.0,519.0 558.0,519.0 463.0,521.0 557.0,521.0 463.0,523.0 505.0,523.0 488.0,525.0 557.0,525.0 465.0,527.0 532.0,527.0 465.0,529.0 487.0,529.0 467.0,531.0 556.0,531.0 535.0,533.0 556.0,533.0 534.0,535.0 534.0,535.0 467.0,537.0 556.0,537.0 468.0,539.0 556.0,539.0" fill="none" stroke="#0ab0c4" stroke-width="3" /><path d="M 245.0,476.0 258.0,476.0 240.0,478.0 257.0,478.0 239.0,480.0 253.0,480.0 234.0,482.0 253.0,482.0 230.0,484.0 241.0,484.0 230.0,486.0 232.0,486.0 230.0,488.0 232.0,488.0 230.0,492.0 235.0,492.0 232.0,494.0 235.0,494.0" fill="none" stroke="#0ab0c4" stroke-width="3" /><path d="M 445.0,413.0 477.0,413.0 380.0,415.0 490.0,415.0 308.0,417.0 490.0,417.0 253.0,419.0 474.0,419.0 253.0,421.0 431.0,421.0 234.0,423.0 381.0,423.0 234.0,425.0 381.0,425.0 245.0,427.0 346.0,427.0 234.0,429.0 326.0,429.0 234.0,431.0 302.0,431.0 254.0,433.0 317.0,433.0 254.0,435.0 316.0,435.0 314.0,437.0 481.0,437.0 318.0,439.0 555.0,439.0 375.0,441.0 555.0,441.0 414.0,443.0 562.0,443.0 364.0,445.0 562.0,445.0 315.0,447.0 555.0,447.0 261.0,449.0 542.0,449.0 260.0,451.0 524.0,451.0 233.0,453.0 569.0,453.0 230.0,455.0 569.0,455.0 230.0,457.0 547.0,457.0 247.0,459.0 521.0,459.0 247.0,461.0 467.0,461.0 230.0,463.0 445.0,463.0 230.0,465.0 445.0,465.0 420.0,467.0 585.0,467.0 234.0,469.0 266.0,469.0 234.0,473.0 585.0,473.0 234.0,475.0 586.0,475.0 260.0,477.0 265.0,477.0 254.0,479.0 586.0,479.0 254.0,481.0 582.0,481.0 244.0,483.0 584.0,483.0 239.0,485.0 243.0,485.0 499.0,487.0 584.0,487.0 239.0,489.0 578.0,489.0 254.0,491.0 579.0,491.0 236.0,493.0 582.0,493.0 230.0,495.0 481.0,495.0 230.0,497.0 582.0,497.0 231.0,499.0 583.0,499.0 230.0,501.0 584.0,501.0 227.0,503.0 480.0,503.0 227.0,505.0 584.0,505.0 227.0,507.0 586.0,507.0 227.0,509.0 495.0,509.0 242.0,511.0 586.0,511.0 228.0,513.0 559.0,513.0 227.0,515.0 580.0,515.0 574.0,517.0 580.0,517.0 227.0,519.0 574.0,519.0 288.0,521.0 569.0,521.0 228.0,523.0 560.0,523.0 404.0,525.0 559.0,525.0 405.0,527.0 462.0,527.0 463.0,529.0 464.0,529.0 228.0,531.0 464.0,531.0 228.0,533.0 464.0,533.0 228.0,535.0 464.0,535.0 303.0,537.0 425.0,537.0 268.0,539.0 403.0,539.0 228.0,541.0 266.0,541.0 354.0,549.0 385.0,549.0 228.0,551.0 354.0,551.0 285.0,553.0 315.0,553.0 263.0,555.0 307.0,555.0 248.0,557.0 302.0,557.0 228.0,559.0 465.0,559.0 228.0,561.0 465.0,561.0 405.0,563.0 465.0,563.0 288.0,565.0 465.0,565.0 228.0,567.0 405.0,567.0 228.0,569.0 405.0,569.0 229.0,571.0 315.0,571.0 229.0,573.0 285.0,573.0 240.0,575.0 285.0,575.0 230.0,577.0 271.0,577.0 231.0,579.0 271.0,579.0 233.0,581.0 415.0,581.0 233.0,583.0 525.0,583.0 235.0,585.0 525.0,585.0 240.0,587.0 456.0,587.0 241.0,589.0 525.0,589.0 240.0,591.0 525.0,591.0 240.0,593.0 519.0,593.0 297.0,595.0 519.0,595.0 245.0,597.0 500.0,597.0 246.0,599.0 500.0,599.0 439.0,601.0 500.0,601.0 252.0,603.0 500.0,603.0 252.0,605.0 436.0,605.0 304.0,607.0 416.0,607.0 284.0,609.0 303.0,609.0 258.0,611.0 416.0,611.0 258.0,613.0 375.0,613.0 264.0,615.0 346.0,615.0 269.0,617.0 314.0,617.0 269.0,619.0 313.0,619.0 274.0,621.0 314.0,621.0 280.0,623.0 314.0,623.0 277.0,625.0 311.0,625.0 277.0,627.0 286.0,627.0 278.0,629.0 317.0,629.0 278.0,631.0 317.0,631.0 287.0,633.0 317.0,633.0 300.0,635.0 317.0,635.0 295.0,637.0 311.0,637.0 295.0,639.0 311.0,639.0" fill="none" stroke="#91f654" stroke-width="3" /><path d="M 343.0,210.0 355.0,210.0 355.0,212.0 359.0,212.0 342.0,214.0 359.0,214.0 354.0,218.0 356.0,218.0" fill="none" stroke="#91f654" stroke-width="3" /><path d="M 219.0,182.0 222.0,182.0 217.0,184.0 225.0,184.0 213.0,186.0 225.0,186.0 205.0,188.0 222.0,188.0 203.0,190.0 219.0,190.0 197.0,192.0 213.0,192.0 192.0,194.0 210.0,194.0 187.0,196.0 204.0,196.0 182.0,198.0 200.0,198.0 182.0,200.0 195.0,200.0 177.0,202.0 187.0,202.0 173.0,204.0 187.0,204.0 173.0,206.0 179.0,206.0 174.0,208.0 195.0,208.0 174.0,210.0 195.0,210.0 179.0,212.0 192.0,212.0 177.0,214.0 202.0,214.0 177.0,216.0 212.0,216.0 177.0,218.0 212.0,218.0 177.0,220.0 204.0,220.0 180.0,222.0 201.0,222.0 177.0,224.0 201.0,224.0 177.0,226.0 186.0,226.0 182.0,228.0 221.0,228.0 182.0,230.0 221.0,230.0 189.0,232.0 251.0,232.0 167.0,234.0 251.0,234.0 148.0,236.0 230.0,236.0 142.0,238.0 210.0,238.0 175.0,240.0 192.0,240.0 142.0,242.0 175.0,242.0 140.0,244.0 204.0,244.0 140.0,246.0 225.0,246.0 140.0,248.0 226.0,248.0 140.0,250.0 226.0,250.0 143.0,252.0 221.0,252.0 140.0,254.0 221.0,254.0 140.0,256.0 304.0,256.0 140.0,258.0 308.0,258.0 140.0,260.0 308.0,260.0 142.0,262.0 307.0,262.0 308.0,264.0 441.0,264.0 142.0,266.0 442.0,266.0 142.0,268.0 442.0,268.0 368.0,272.0 442.0,272.0 142.0,274.0 442.0,274.0 142.0,276.0 441.0,276.0 367.0,278.0 441.0,278.0 142.0,280.0 366.0,280.0 143.0,282.0 400.0,282.0 335.0,284.0 400.0,284.0 335.0,286.0 400.0,286.0 143.0,288.0 400.0,288.0 183.0,290.0 345.0,290.0 212.0,292.0 394.0,292.0 150.0,294.0 393.0,294.0 334.0,296.0 394.0,296.0 150.0,298.0 394.0,298.0 158.0,300.0 334.0,300.0 150.0,302.0 294.0,302.0 150.0,306.0 312.0,306.0 153.0,308.0 371.0,308.0 153.0,310.0 371.0,310.0 157.0,312.0 425.0,312.0 421.0,316.0 425.0,316.0 157.0,318.0 226.0,318.0 227.0,320.0 421.0,320.0 160.0,322.0 390.0,322.0 162.0,324.0 390.0,324.0 162.0,326.0 354.0,326.0 165.0,328.0 344.0,328.0 165.0,332.0 385.0,332.0 166.0,334.0 389.0,334.0 169.0,336.0 225.0,336.0 169.0,338.0 171.0,338.0 172.0,340.0 389.0,340.0 203.0,342.0 361.0,342.0 175.0,344.0 412.0,344.0 175.0,346.0 411.0,346.0 194.0,348.0 411.0,348.0 194.0,350.0 409.0,350.0 193.0,352.0 421.0,352.0 193.0,354.0 194.0,354.0 194.0,356.0 421.0,356.0 198.0,358.0 405.0,358.0 357.0,360.0 374.0,360.0 356.0,362.0 356.0,362.0 357.0,364.0 434.0,364.0 198.0,366.0 265.0,366.0 210.0,368.0 434.0,368.0 210.0,370.0 409.0,370.0 215.0,372.0 360.0,372.0 216.0,374.0 355.0,374.0 215.0,376.0 339.0,376.0 215.0,378.0 335.0,378.0 247.0,380.0 335.0,380.0 215.0,382.0 330.0,382.0 214.0,384.0 330.0,384.0 310.0,386.0 319.0,386.0 303.0,388.0 310.0,388.0 214.0,390.0 302.0,390.0 265.0,392.0 299.0,392.0 234.0,394.0 293.0,394.0 214.0,396.0 289.0,396.0 214.0,398.0 255.0,398.0 215.0,402.0 225.0,402.0 216.0,404.0 255.0,404.0 215.0,406.0 261.0,406.0 215.0,408.0 222.0,408.0 223.0,410.0 261.0,410.0 223.0,414.0 250.0,414.0" fill="none" stroke="#91f654" stroke-width="3" /><path d="M 379.0,180.0 409.0,180.0 409.0,182.0 411.0,182.0 378.0,184.0 428.0,184.0 418.0,186.0 429.0,186.0 378.0,190.0 430.0,190.0 382.0,192.0 430.0,192.0 382.0,194.0 420.0,194.0 400.0,196.0 420.0,196.0 393.0,198.0 422.0,198.0 382.0,200.0 422.0,200.0 382.0,202.0 411.0,202.0 382.0,204.0 457.0,204.0 382.0,206.0 457.0,206.0 400.0,208.0 448.0,208.0 387.0,210.0 437.0,210.0 387.0,212.0 435.0,212.0 390.0,214.0 455.0,214.0 393.0,216.0 455.0,216.0 371.0,218.0 461.0,218.0 371.0,220.0 461.0,220.0 370.0,222.0 462.0,222.0 370.0,226.0 396.0,226.0 398.0,228.0 462.0,228.0 375.0,230.0 460.0,230.0 459.0,232.0 461.0,232.0 375.0,234.0 461.0,234.0 385.0,236.0 450.0,236.0 374.0,238.0 466.0,238.0 374.0,240.0 465.0,240.0 374.0,242.0 465.0,242.0 374.0,244.0 462.0,244.0 375.0,246.0 440.0,246.0 374.0,248.0 422.0,248.0 348.0,250.0 394.0,250.0 331.0,252.0 394.0,252.0 331.0,254.0 393.0,254.0 331.0,256.0 394.0,256.0 332.0,258.0 381.0,258.0 345.0,260.0 374.0,260.0" fill="none" stroke="#91f654" stroke-width="3" /><path d="M 192.0,53.0 199.0,53.0 187.0,55.0 199.0,55.0 178.0,57.0 199.0,57.0 169.0,59.0 178.0,59.0 169.0,61.0 199.0,61.0 158.0,63.0 196.0,63.0 153.0,65.0 196.0,65.0 149.0,67.0 192.0,67.0 147.0,69.0 181.0,69.0 169.0,71.0 172.0,71.0 167.0,73.0 167.0,73.0 147.0,75.0 169.0,75.0 137.0,77.0 169.0,77.0 137.0,79.0 168.0,79.0 144.0,81.0 169.0,81.0 135.0,83.0 160.0,83.0 134.0,85.0 160.0,85.0 130.0,87.0 157.0,87.0 130.0,89.0 157.0,89.0 133.0,91.0 154.0,91.0 129.0,93.0 157.0,93.0 128.0,95.0 157.0,95.0 144.0,97.0 150.0,97.0 126.0,99.0 281.0,99.0 125.0,105.0 128.0,105.0 257.0,109.0 281.0,109.0 128.0,111.0 256.0,111.0 144.0,113.0 240.0,113.0 128.0,115.0 207.0,115.0 128.0,117.0 325.0,117.0 128.0,119.0 387.0,119.0 128.0,121.0 387.0,121.0 162.0,123.0 355.0,123.0 128.0,125.0 387.0,125.0 354.0,127.0 387.0,127.0 297.0,129.0 354.0,129.0 128.0,131.0 296.0,131.0 160.0,133.0 217.0,133.0 152.0,135.0 217.0,135.0 190.0,137.0 204.0,137.0 152.0,139.0 190.0,139.0 163.0,141.0 182.0,141.0 155.0,143.0 171.0,143.0 150.0,145.0 180.0,145.0 180.0,147.0 209.0,147.0 195.0,149.0 209.0,149.0 150.0,151.0 194.0,151.0 148.0,153.0 209.0,153.0 210.0,155.0 386.0,155.0 148.0,157.0 386.0,157.0 148.0,159.0 386.0,159.0 328.0,161.0 386.0,161.0 281.0,165.0 326.0,165.0 148.0,167.0 330.0,167.0 148.0,169.0 405.0,169.0 148.0,171.0 149.0,171.0 341.0,175.0 405.0,175.0 150.0,177.0 341.0,177.0 152.0,179.0 312.0,179.0 152.0,181.0 252.0,181.0 157.0,183.0 300.0,183.0 157.0,185.0 302.0,185.0 149.0,187.0 245.0,187.0 144.0,189.0 302.0,189.0 143.0,191.0 295.0,191.0 143.0,193.0 300.0,193.0 145.0,195.0 307.0,195.0 143.0,197.0 307.0,197.0 142.0,199.0 310.0,199.0 142.0,201.0 310.0,201.0 144.0,203.0 322.0,203.0 144.0,205.0 339.0,205.0 142.0,207.0 149.0,207.0 142.0,209.0 339.0,209.0 142.0,211.0 333.0,211.0 140.0,213.0 327.0,213.0 142.0,217.0 327.0,217.0 142.0,219.0 320.0,219.0 273.0,221.0 309.0,221.0 272.0,223.0 326.0,223.0 323.0,225.0 327.0,225.0 272.0,227.0 323.0,227.0" fill="none" stroke="#91f654" stroke-width="3" /><path d="M 343.0,492.0 452.0,492.0 453.0,494.0 480.0,494.0 343.0,496.0 480.0,496.0 457.0,498.0 481.0,498.0 479.0,500.0 482.0,500.0 479.0,502.0 479.0,502.0 468.0,508.0 494.0,508.0 468.0,514.0 492.0,514.0 464.0,516.0 556.0,516.0 464.0,520.0 557.0,520.0 505.0,522.0 505.0,522.0 488.0,524.0 556.0,524.0 465.0,526.0 557.0,526.0 465.0,528.0 532.0,528.0 467.0,530.0 556.0,530.0 534.0,534.0 556.0,534.0 466.0,536.0 556.0,536.0 468.0,538.0 556.0,538.0" fill="none" stroke="#f07a55" stroke-width="3" /><path d="M 245.0,476.0 258.0,476.0 240.0,478.0 258.0,478.0 234.0,480.0 252.0,480.0 234.0,482.0 248.0,482.0 230.0,484.0 241.0,484.0 230.0,486.0 238.0,486.0 230.0,488.0 235.0,488.0 233.0,490.0 253.0,490.0 230.0,492.0 252.0,492.0 231.0,494.0 235.0,494.0" fill="none" stroke="#f07a55" stroke-width="3" /><path d="M 282.0,617.0 290.0,617.0 283.0,619.0 290.0,619.0 285.0,621.0 289.0,621.0 283.0,623.0 289.0,623.0 283.0,625.0 299.0,625.0 287.0,627.0 299.0,627.0" fill="none" stroke="#61dee5" stroke-width="3" /><path d="M 397.0,393.0 439.0,393.0 389.0,397.0 439.0,397.0 385.0,399.0 432.0,399.0 421.0,401.0 421.0,401.0 422.0,403.0 434.0,403.0 385.0,405.0 386.0,405.0 382.0,407.0 434.0,407.0 380.0,409.0 432.0,409.0 380.0,411.0 419.0,411.0 397.0,413.0 442.0,413.0 380.0,415.0 442.0,415.0" fill="none" stroke="#61dee5" stroke-width="3" /><path d="M 145.0,290.0 180.0,290.0 150.0,292.0 179.0,292.0 145.0,294.0 149.0,294.0" fill="none" stroke="#61dee5" stroke-width="3" /><path d="M 335.0,210.0 340.0,210.0 334.0,212.0 335.0,212.0 340.0,214.0 370.0,214.0 334.0,216.0 353.0,216.0 343.0,218.0 356.0,218.0 369.0,220.0 370.0,220.0 329.0,222.0 369.0,222.0 329.0,224.0 367.0,224.0 324.0,226.0 357.0,226.0 314.0,228.0 349.0,228.0 312.0,230.0 349.0,230.0 339.0,232.0 357.0,232.0 308.0,234.0 312.0,234.0 308.0,236.0 357.0,236.0 307.0,238.0 344.0,238.0 334.0,240.0 344.0,240.0 307.0,242.0 371.0,242.0 309.0,244.0 373.0,244.0 309.0,246.0 321.0,246.0 319.0,250.0 373.0,250.0 314.0,252.0 346.0,252.0 307.0,254.0 330.0,254.0 307.0,258.0 342.0,258.0 309.0,260.0 357.0,260.0 310.0,262.0 357.0,262.0" fill="none" stroke="#61dee5" stroke-width="3" /><path d="M 342.0,491.0 453.0,491.0 453.0,493.0 480.0,493.0 342.0,495.0 480.0,495.0 343.0,497.0 482.0,497.0 456.0,499.0 483.0,499.0 475.0,505.0 476.0,505.0 471.0,507.0 479.0,507.0 467.0,509.0 494.0,509.0 464.0,515.0 557.0,515.0 557.0,519.0 558.0,519.0 463.0,521.0 557.0,521.0 463.0,523.0 505.0,523.0 466.0,525.0 557.0,525.0 465.0,527.0 532.0,527.0 465.0,529.0 487.0,529.0 466.0,531.0 556.0,531.0 535.0,533.0 556.0,533.0 534.0,535.0 556.0,535.0 468.0,539.0 556.0,539.0" fill="none" stroke="#871118" stroke-width="3" /><path d="M 245.0,476.0 258.0,476.0 240.0,478.0 258.0,478.0 234.0,480.0 253.0,480.0 234.0,482.0 253.0,482.0 230.0,484.0 241.0,484.0 230.0,486.0 238.0,486.0 230.0,488.0 235.0,488.0 233.0,490.0 253.0,490.0 230.0,492.0 253.0,492.0 230.0,494.0 235.0,494.0" fill="none" stroke="#871118" stroke-width="3" /></svg>