<svg version="1.1" xmlns="http://www.w3.org/2000/svg" xmlns:xlink="http://www.w3.org/1999/xlink" xmlns:ev="http://www.w3.org/2001/xml-events" width="475.0" height="511.0" viewBox="0 0 475.0 511.0"><path d="M 463.0,377.0 469.0,377.0 463.0,379.0 469.0,379.0 464.0,381.0 468.0,381.0 464.0,383.0 471.0,383.0 467.0,385.0 467.0,385.0 466.0,387.0 468.0,387.0 465.0,389.0 472.0,389.0 466.0,391.0 470.0,391.0 267.0,393.0 475.0,393.0 257.0,395.0 472.0,395.0 252.0,397.0 475.0,397.0 247.0,399.0 474.0,399.0 180.0,401.0 474.0,401.0 181.0,403.0 471.0,403.0 177.0,405.0 462.0,405.0 177.0,407.0 455.0,407.0 199.0,409.0 471.0,409.0 219.0,411.0 469.0,411.0 189.0,413.0 466.0,413.0 177.0,415.0 464.0,415.0 177.0,417.0 466.0,417.0 177.0,419.0 462.0,419.0 177.0,421.0 446.0,421.0 177.0,423.0 462.0,423.0 177.0,425.0 462.0,425.0 245.0,427.0 462.0,427.0 244.0,429.0 460.0,429.0 177.0,431.0 446.0,431.0 437.0,433.0 456.0,433.0 177.0,435.0 455.0,435.0 358.0,437.0 431.0,437.0 267.0,439.0 437.0,439.0 209.0,441.0 437.0,441.0 177.0,443.0 437.0,443.0 436.0,445.0 437.0,445.0 177.0,447.0 436.0,447.0 198.0,449.0 414.0,449.0 177.0,451.0 437.0,451.0 177.0,453.0 437.0,453.0 403.0,455.0 437.0,455.0 178.0,457.0 179.0,457.0 372.0,459.0 437.0,459.0 179.0,461.0 435.0,461.0 181.0,465.0 435.0,465.0 183.0,467.0 249.0,467.0 187.0,469.0 248.0,469.0 420.0,471.0 430.0,471.0 187.0,473.0 191.0,473.0 415.0,475.0 420.0,475.0 191.0,477.0 415.0,477.0 400.0,481.0 411.0,481.0 196.0,483.0 400.0,483.0 370.0,485.0 382.0,485.0 333.0,487.0 370.0,487.0 201.0,489.0 333.0,489.0 206.0,491.0 300.0,491.0 211.0,493.0 277.0,493.0 216.0,495.0 257.0,495.0 219.0,497.0 221.0,497.0 219.0,499.0 257.0,499.0 226.0,501.0 257.0,501.0 219.0,503.0 257.0,503.0 226.0,505.0 257.0,505.0 233.0,509.0 253.0,509.0 247.0,511.0 251.0,511.0" fill="none" stroke="#517890" stroke-width="3" /><path d="M 249.0,248.0 341.0,248.0 234.0,250.0 341.0,250.0 265.0,252.0 340.0,252.0 239.0,254.0 336.0,254.0 309.0,256.0 337.0,256.0 275.0,258.0 337.0,258.0 316.0,260.0 335.0,260.0 311.0,262.0 333.0,262.0 316.0,264.0 328.0,264.0 176.0,266.0 322.0,266.0 309.0,268.0 325.0,268.0 311.0,270.0 331.0,270.0 307.0,272.0 326.0,272.0 306.0,274.0 337.0,274.0 306.0,276.0 328.0,276.0 297.0,278.0 304.0,278.0 296.0,280.0 301.0,280.0 295.0,282.0 337.0,282.0 293.0,284.0 345.0,284.0 286.0,286.0 291.0,286.0 282.0,288.0 345.0,288.0 279.0,290.0 347.0,290.0 278.0,292.0 348.0,292.0 274.0,294.0 348.0,294.0 271.0,296.0 350.0,296.0 267.0,298.0 350.0,298.0 259.0,300.0 350.0,300.0 258.0,302.0 350.0,302.0 253.0,304.0 350.0,304.0 232.0,306.0 351.0,306.0 252.0,308.0 351.0,308.0 248.0,310.0 351.0,310.0 236.0,312.0 351.0,312.0 218.0,314.0 351.0,314.0 207.0,316.0 351.0,316.0 203.0,318.0 351.0,318.0 200.0,320.0 351.0,320.0 195.0,322.0 313.0,322.0 168.0,324.0 193.0,324.0 173.0,326.0 304.0,326.0 302.0,328.0 305.0,328.0 173.0,330.0 355.0,330.0 355.0,332.0 391.0,332.0 391.0,334.0 418.0,334.0 418.0,336.0 425.0,336.0 365.0,338.0 425.0,338.0 182.0,340.0 447.0,340.0 447.0,342.0 451.0,342.0 182.0,346.0 250.0,346.0 182.0,348.0 248.0,348.0 182.0,350.0 250.0,350.0 182.0,352.0 451.0,352.0 182.0,354.0 451.0,354.0 182.0,356.0 451.0,356.0 182.0,358.0 422.0,358.0 182.0,360.0 420.0,360.0 182.0,362.0 237.0,362.0 182.0,364.0 399.0,364.0 260.0,366.0 394.0,366.0 250.0,368.0 389.0,368.0 221.0,370.0 355.0,370.0 182.0,372.0 342.0,372.0 182.0,376.0 330.0,376.0 183.0,378.0 330.0,378.0 183.0,380.0 286.0,380.0 204.0,382.0 266.0,382.0 246.0,384.0 266.0,384.0 258.0,386.0 261.0,386.0 251.0,388.0 261.0,388.0 256.0,390.0 262.0,390.0" fill="none" stroke="#517890" stroke-width="3" /><path d="M 212.0,196.0 237.0,196.0 180.0,198.0 211.0,198.0 180.0,200.0 240.0,200.0 146.0,202.0 241.0,202.0 126.0,204.0 244.0,204.0 125.0,206.0 243.0,206.0 133.0,208.0 239.0,208.0 108.0,210.0 133.0,210.0 200.0,212.0 229.0,212.0 108.0,214.0 216.0,214.0 216.0,216.0 230.0,216.0 108.0,218.0 234.0,218.0 108.0,220.0 234.0,220.0 141.0,222.0 266.0,222.0 109.0,224.0 236.0,224.0 109.0,226.0 230.0,226.0 111.0,228.0 230.0,228.0 111.0,230.0 232.0,230.0 111.0,232.0 231.0,232.0 113.0,234.0 230.0,234.0 115.0,236.0 223.0,236.0 115.0,238.0 248.0,238.0 115.0,240.0 214.0,240.0 117.0,242.0 204.0,242.0 117.0,244.0 203.0,244.0 120.0,246.0 195.0,246.0 120.0,248.0 191.0,248.0 120.0,250.0 200.0,250.0 123.0,252.0 200.0,252.0 123.0,254.0 190.0,254.0 124.0,256.0 184.0,256.0 138.0,258.0 180.0,258.0 127.0,260.0 169.0,260.0 127.0,262.0 168.0,262.0 130.0,266.0 132.0,266.0 132.0,268.0 168.0,268.0 135.0,270.0 168.0,270.0 135.0,272.0 169.0,272.0 154.0,274.0 163.0,274.0 158.0,276.0 160.0,276.0 154.0,278.0 160.0,278.0 151.0,280.0 163.0,280.0 151.0,282.0 162.0,282.0 153.0,284.0 162.0,284.0 153.0,286.0 162.0,286.0 153.0,288.0 244.0,288.0 161.0,290.0 244.0,290.0 163.0,292.0 243.0,292.0" fill="none" stroke="#517890" stroke-width="3" /><path d="M 300.0,144.0 328.0,144.0 300.0,146.0 342.0,146.0 299.0,148.0 351.0,148.0 299.0,150.0 351.0,150.0 302.0,152.0 358.0,152.0 302.0,154.0 343.0,154.0 317.0,156.0 318.0,156.0 316.0,158.0 358.0,158.0 302.0,160.0 354.0,160.0 302.0,162.0 367.0,162.0 304.0,164.0 367.0,164.0 304.0,166.0 369.0,166.0 307.0,168.0 369.0,168.0 306.0,170.0 362.0,170.0 319.0,172.0 370.0,172.0 359.0,174.0 370.0,174.0 371.0,176.0 374.0,176.0 367.0,178.0 373.0,178.0 369.0,180.0 374.0,180.0 371.0,182.0 372.0,182.0 365.0,184.0 370.0,184.0 363.0,186.0 367.0,186.0 361.0,188.0 369.0,188.0 369.0,190.0 373.0,190.0 370.0,192.0 373.0,192.0" fill="none" stroke="#517890" stroke-width="3" /><path d="M 116.0,143.0 164.0,143.0 155.0,145.0 162.0,145.0 129.0,147.0 164.0,147.0 116.0,149.0 162.0,149.0 112.0,151.0 164.0,151.0 109.0,153.0 160.0,153.0 109.0,155.0 152.0,155.0 110.0,157.0 144.0,157.0 109.0,159.0 144.0,159.0 116.0,161.0 138.0,161.0 112.0,163.0 131.0,163.0 108.0,165.0 132.0,165.0 108.0,167.0 123.0,167.0 109.0,169.0 121.0,169.0 108.0,171.0 123.0,171.0 108.0,173.0 123.0,173.0" fill="none" stroke="#517890" stroke-width="3" /><path d="M 154.0,40.0 155.0,40.0 153.0,42.0 157.0,42.0 153.0,44.0 156.0,44.0 153.0,46.0 156.0,46.0 153.0,48.0 238.0,48.0 130.0,50.0 256.0,50.0 123.0,52.0 263.0,52.0 117.0,54.0 270.0,54.0 117.0,56.0 270.0,56.0 112.0,58.0 279.0,58.0 112.0,60.0 279.0,60.0 112.0,62.0 286.0,62.0 104.0,64.0 289.0,64.0 104.0,66.0 289.0,66.0 103.0,68.0 293.0,68.0 103.0,70.0 293.0,70.0 99.0,72.0 293.0,72.0 99.0,74.0 293.0,74.0 98.0,76.0 293.0,76.0 98.0,78.0 293.0,78.0 97.0,80.0 293.0,80.0 97.0,82.0 300.0,82.0 97.0,84.0 300.0,84.0 97.0,86.0 302.0,86.0 144.0,88.0 302.0,88.0 123.0,90.0 302.0,90.0 97.0,92.0 305.0,92.0 97.0,96.0 305.0,96.0 97.0,98.0 311.0,98.0 97.0,102.0 311.0,102.0 172.0,104.0 311.0,104.0 125.0,106.0 313.0,106.0 141.0,108.0 288.0,108.0 116.0,110.0 313.0,110.0 141.0,112.0 288.0,112.0 116.0,114.0 318.0,114.0 141.0,116.0 292.0,116.0 115.0,118.0 318.0,118.0 166.0,120.0 318.0,120.0 115.0,122.0 266.0,122.0 113.0,124.0 322.0,124.0 153.0,126.0 308.0,126.0 113.0,128.0 325.0,128.0 207.0,130.0 325.0,130.0 166.0,132.0 323.0,132.0 113.0,134.0 325.0,134.0 115.0,136.0 325.0,136.0 115.0,138.0 313.0,138.0 179.0,140.0 289.0,140.0 183.0,142.0 288.0,142.0 199.0,144.0 289.0,144.0 183.0,146.0 229.0,146.0 195.0,148.0 222.0,148.0 195.0,150.0 221.0,150.0 192.0,152.0 221.0,152.0 200.0,154.0 223.0,154.0 191.0,156.0 224.0,156.0 192.0,158.0 227.0,158.0 192.0,160.0 238.0,160.0 191.0,162.0 244.0,162.0 197.0,164.0 247.0,164.0 205.0,166.0 259.0,166.0 220.0,168.0 261.0,168.0 213.0,170.0 260.0,170.0 213.0,172.0 261.0,172.0 214.0,174.0 255.0,174.0 227.0,176.0 261.0,176.0 214.0,178.0 261.0,178.0" fill="none" stroke="#517890" stroke-width="3" /><path d="M 303.0,329.0 355.0,329.0" fill="none" stroke="#dd7430" stroke-width="3" /><path d="M 314.0,321.0 351.0,321.0" fill="none" stroke="#dd7430" stroke-width="3" /><path d="M 315.0,317.0 351.0,317.0" fill="none" stroke="#dd7430" stroke-width="3" /><path d="M 111.0,229.0 141.0,229.0" fill="none" stroke="#dd7430" stroke-width="3" /><path d="M 205.0,381.0 243.0,381.0 196.0,383.0 244.0,383.0 245.0,385.0 250.0,385.0 196.0,387.0 250.0,387.0 188.0,389.0 253.0,389.0 182.0,391.0 261.0,391.0 182.0,393.0 261.0,393.0 182.0,395.0 255.0,395.0 246.0,397.0 250.0,397.0 182.0,399.0 245.0,399.0 181.0,401.0 229.0,401.0" fill="none" stroke="#b1d062" stroke-width="3" /><path d="M 452.0,356.0 452.0,356.0 423.0,358.0 454.0,358.0 421.0,360.0 455.0,360.0 400.0,362.0 455.0,362.0 400.0,364.0 456.0,364.0 395.0,366.0 456.0,366.0 357.0,368.0 431.0,368.0 344.0,370.0 456.0,370.0 310.0,372.0 456.0,372.0 310.0,374.0 468.0,374.0 332.0,376.0 462.0,376.0 295.0,378.0 461.0,378.0 277.0,380.0 462.0,380.0 294.0,382.0 437.0,382.0 269.0,384.0 466.0,384.0 270.0,386.0 465.0,386.0 464.0,388.0 464.0,388.0 270.0,390.0 465.0,390.0 271.0,392.0 463.0,392.0 364.0,394.0 416.0,394.0 382.0,396.0 462.0,396.0 384.0,398.0 462.0,398.0 457.0,400.0 458.0,400.0 383.0,402.0 456.0,402.0 385.0,404.0 454.0,404.0 382.0,406.0 448.0,406.0 414.0,408.0 446.0,408.0 403.0,410.0 446.0,410.0 392.0,412.0 445.0,412.0 373.0,414.0 446.0,414.0 382.0,416.0 437.0,416.0 372.0,418.0 429.0,418.0 371.0,420.0 414.0,420.0 373.0,422.0 446.0,422.0 372.0,424.0 446.0,424.0 372.0,426.0 446.0,426.0" fill="none" stroke="#b1d062" stroke-width="3" /><path d="M 246.0,145.0 276.0,145.0 223.0,147.0 288.0,147.0 240.0,149.0 290.0,149.0 222.0,151.0 291.0,151.0 225.0,155.0 291.0,155.0 244.0,157.0 289.0,157.0 239.0,159.0 276.0,159.0 246.0,161.0 289.0,161.0 248.0,163.0 293.0,163.0 261.0,165.0 284.0,165.0 261.0,167.0 293.0,167.0 271.0,169.0 290.0,169.0 283.0,171.0 316.0,171.0 284.0,173.0 357.0,173.0 284.0,175.0 364.0,175.0 295.0,177.0 360.0,177.0 293.0,179.0 346.0,179.0 347.0,181.0 364.0,181.0 295.0,183.0 364.0,183.0 331.0,185.0 362.0,185.0 313.0,187.0 359.0,187.0 297.0,189.0 367.0,189.0 297.0,193.0 368.0,193.0 282.0,195.0 371.0,195.0 286.0,197.0 367.0,197.0 299.0,199.0 367.0,199.0 351.0,201.0 366.0,201.0 299.0,203.0 361.0,203.0 299.0,205.0 363.0,205.0 269.0,207.0 363.0,207.0 233.0,209.0 359.0,209.0 233.0,211.0 359.0,211.0 238.0,213.0 354.0,213.0 242.0,215.0 327.0,215.0 238.0,217.0 354.0,217.0 352.0,219.0 353.0,219.0 268.0,221.0 354.0,221.0 238.0,223.0 350.0,223.0 231.0,225.0 323.0,225.0 232.0,227.0 350.0,227.0 234.0,229.0 350.0,229.0 232.0,231.0 348.0,231.0 232.0,233.0 345.0,233.0 225.0,235.0 316.0,235.0 250.0,237.0 347.0,237.0 216.0,239.0 347.0,239.0 205.0,241.0 329.0,241.0 205.0,243.0 347.0,243.0 197.0,245.0 342.0,245.0 194.0,247.0 247.0,247.0 192.0,249.0 201.0,249.0 202.0,251.0 232.0,251.0 192.0,253.0 223.0,253.0 186.0,255.0 228.0,255.0 182.0,257.0 307.0,257.0 172.0,259.0 272.0,259.0 176.0,261.0 248.0,261.0 172.0,265.0 174.0,265.0 171.0,267.0 307.0,267.0 206.0,269.0 307.0,269.0 171.0,271.0 310.0,271.0 166.0,273.0 305.0,273.0 164.0,275.0 305.0,275.0 296.0,277.0 304.0,277.0 164.0,279.0 295.0,279.0 163.0,283.0 294.0,283.0 163.0,285.0 291.0,285.0 164.0,287.0 284.0,287.0 246.0,289.0 280.0,289.0 245.0,291.0 277.0,291.0 235.0,293.0 277.0,293.0 224.0,295.0 272.0,295.0 208.0,297.0 269.0,297.0 208.0,299.0 262.0,299.0 191.0,301.0 257.0,301.0 168.0,303.0 257.0,303.0 190.0,305.0 250.0,305.0 168.0,307.0 194.0,307.0 195.0,309.0 228.0,309.0 189.0,311.0 247.0,311.0 168.0,313.0 234.0,313.0 167.0,315.0 216.0,315.0 174.0,317.0 205.0,317.0 168.0,319.0 201.0,319.0 175.0,321.0 198.0,321.0 168.0,323.0 193.0,323.0" fill="none" stroke="#b1d062" stroke-width="3" /><path d="M 174.0,145.0 176.0,145.0 171.0,147.0 181.0,147.0 168.0,149.0 179.0,149.0 168.0,151.0 179.0,151.0 161.0,153.0 176.0,153.0 154.0,155.0 179.0,155.0 145.0,157.0 190.0,157.0 139.0,161.0 190.0,161.0 133.0,163.0 194.0,163.0 136.0,165.0 196.0,165.0 136.0,167.0 196.0,167.0 155.0,169.0 191.0,169.0 142.0,171.0 179.0,171.0 136.0,173.0 162.0,173.0 136.0,175.0 196.0,175.0 144.0,177.0 188.0,177.0 136.0,179.0 196.0,179.0 140.0,181.0 200.0,181.0 148.0,183.0 192.0,183.0 140.0,185.0 200.0,185.0 141.0,187.0 185.0,187.0 128.0,189.0 200.0,189.0 122.0,191.0 233.0,191.0 108.0,193.0 201.0,193.0 141.0,195.0 234.0,195.0 132.0,197.0 194.0,197.0 107.0,199.0 178.0,199.0 123.0,201.0 169.0,201.0 115.0,203.0 132.0,203.0 110.0,205.0 124.0,205.0 107.0,207.0 132.0,207.0 107.0,209.0 132.0,209.0" fill="none" stroke="#b1d062" stroke-width="3" /><path d="M 181.0,366.0 259.0,366.0 181.0,368.0 259.0,368.0 181.0,370.0 229.0,370.0 181.0,372.0 219.0,372.0" fill="none" stroke="#2223e5" stroke-width="3" /><path d="M 165.0,284.0 196.0,284.0 165.0,286.0 196.0,286.0" fill="none" stroke="#65a61b" stroke-width="3" /><path d="M 164.0,276.0 198.0,276.0 164.0,278.0 198.0,278.0" fill="none" stroke="#65a61b" stroke-width="3" /><path d="M 164.0,285.0 164.0,285.0 163.0,287.0 245.0,287.0 245.0,289.0 245.0,289.0 244.0,291.0 244.0,291.0 224.0,293.0 243.0,293.0" fill="none" stroke="#335afd" stroke-width="3" /><path d="M 229.0,495.0 248.0,495.0 223.0,497.0 248.0,497.0 223.0,499.0 241.0,499.0 228.0,501.0 237.0,501.0" fill="none" stroke="#9fd304" stroke-width="3" /><path d="M 306.0,323.0 346.0,323.0 306.0,327.0 346.0,327.0" fill="none" stroke="#9fd304" stroke-width="3" /><path d="M 265.0,168.0 270.0,168.0 266.0,170.0 282.0,170.0 268.0,172.0 283.0,172.0 272.0,174.0 283.0,174.0 268.0,176.0 294.0,176.0 273.0,178.0 292.0,178.0 268.0,180.0 294.0,180.0 268.0,182.0 294.0,182.0 258.0,184.0 296.0,184.0 253.0,186.0 284.0,186.0 246.0,188.0 274.0,188.0 256.0,190.0 296.0,190.0 243.0,192.0 296.0,192.0 243.0,194.0 295.0,194.0 246.0,196.0 284.0,196.0 243.0,198.0 297.0,198.0 242.0,200.0 298.0,200.0 242.0,202.0 283.0,202.0 243.0,204.0 298.0,204.0 245.0,206.0 297.0,206.0 245.0,208.0 268.0,208.0" fill="none" stroke="#9fd304" stroke-width="3" /></svg>