<?xml version="1.0" encoding="utf-8" ?>
<svg baseProfile="tiny" height="500" version="1.2" width="507" xmlns="http://www.w3.org/2000/svg" xmlns:ev="http://www.w3.org/2001/xml-events" xmlns:xlink="http://www.w3.org/1999/xlink"><defs /><path d="M 403.61 51.30 L 421.29 68.98 M 447.45 95.14 L 455.94 103.63 M 389.47 41.40 L 395.13 47.06 M 461.60 113.53 L 465.84 117.77 M 376.74 32.92 L 384.52 40.70 M 468.67 124.84 L 474.32 130.50 M 368.26 28.68 L 375.33 35.75 M 472.20 132.62 L 477.86 138.28 M 359.77 24.43 L 365.43 30.09 M 476.45 141.11 L 481.40 146.06 M 352.70 21.60 L 355.53 24.43 M 480.69 149.59 L 484.93 153.83 M 346.34 19.48 L 348.46 21.60 M 484.93 158.08 L 488.47 161.61 M 339.27 16.65 L 342.80 20.19 M 488.47 165.85 L 492.00 169.39 M 332.90 14.53 L 336.44 18.07 M 491.29 172.93 L 494.83 176.46 M 326.54 12.41 L 330.07 15.95 M 492.71 178.58 L 495.54 181.41 M 320.88 11.00 L 324.42 14.53 M 494.83 184.95 L 496.95 187.07 M 315.23 9.58 L 318.05 12.41 M 496.24 190.60 L 497.66 192.02 M 310.28 8.88 L 311.69 10.29 M 497.66 196.26 L 499.07 197.67 M 304.62 7.46 L 306.74 9.58 M 499.07 201.92 L 499.78 202.62 M 299.67 6.76 L 301.79 8.88 M 499.78 206.87 L 500.49 207.57 M 294.01 5.34 L 297.55 8.88 M 500.49 211.82 L 501.90 213.23 M 289.06 4.63 L 293.31 8.88 M 501.19 216.77 L 502.61 218.18 M 284.11 3.93 L 288.36 8.17 M 501.90 221.72 L 504.02 223.84 M 278.46 2.51 L 284.11 8.17 M 502.61 226.67 L 506.14 230.20 M 274.21 2.51 L 279.87 8.17 M 503.32 231.62 L 506.14 234.44 M 269.97 2.51 L 274.92 7.46 M 504.02 236.56 L 506.14 238.69 M 265.73 2.51 L 270.68 7.46 M 504.02 240.81 L 506.14 242.93 M 261.49 2.51 L 266.44 7.46 M 504.02 245.05 L 506.14 247.17 M 257.24 2.51 L 261.49 6.76 M 503.32 248.59 L 506.14 251.41 M 253.00 2.51 L 257.24 6.76 M 503.32 252.83 L 506.14 255.66 M 248.76 2.51 L 253.00 6.76 M 502.61 256.36 L 506.14 259.90 M 244.51 2.51 L 248.05 6.05 M 502.61 260.61 L 506.14 264.14 M 240.27 2.51 L 243.81 6.05 M 502.61 264.85 L 506.14 268.38 M 236.03 2.51 L 239.56 6.05 M 501.90 268.38 L 506.14 272.63 M 231.79 2.51 L 235.32 6.05 M 501.90 272.63 L 504.02 274.75 M 227.54 2.51 L 230.37 5.34 M 501.19 276.16 L 503.32 278.28 M 224.01 3.22 L 226.13 5.34 M 501.19 280.41 L 502.61 281.82 M 220.47 3.93 L 222.59 6.05 M 500.49 283.94 L 501.90 285.36 M 216.94 4.63 L 219.06 6.76 M 500.49 288.18 L 501.19 288.89 M 213.40 5.34 L 215.52 7.46 M 499.78 291.72 L 500.49 292.43 M 209.87 6.05 L 211.99 8.17 M 206.33 6.76 L 208.45 8.88 M 499.07 299.50 L 499.78 300.20 M 202.80 7.46 L 204.92 9.58 M 498.37 303.03 L 499.07 303.74 M 199.26 8.17 L 201.38 10.29 M 497.66 306.57 L 498.37 307.28 M 195.72 8.88 L 197.85 11.00 M 496.24 309.40 L 497.66 310.81 M 192.19 9.58 L 194.31 11.71 M 495.54 312.93 L 496.95 314.35 M 188.65 10.29 L 190.77 12.41 M 494.83 316.47 L 496.24 317.88 M 185.12 11.00 L 187.24 13.12 M 494.12 320.00 L 495.54 321.42 M 181.58 11.71 L 183.70 13.83 M 492.71 322.83 L 494.83 324.95 M 178.05 12.41 L 180.17 14.53 M 492.00 326.37 L 493.42 327.78 M 175.22 13.83 L 176.63 15.24 M 491.29 329.90 L 492.00 330.61 M 172.39 15.24 L 173.80 16.65 M 489.88 332.73 L 491.29 334.15 M 168.85 15.95 L 170.98 18.07 M 488.47 335.56 L 489.88 336.97 M 166.03 17.36 L 167.44 18.78 M 487.05 338.39 L 488.47 339.80 M 162.49 18.07 L 164.61 20.19 M 485.64 341.22 L 487.05 342.63 M 159.66 19.48 L 161.78 21.60 M 484.22 344.05 L 485.64 345.46 M 156.13 20.19 L 158.95 23.02 M 482.81 346.87 L 484.22 348.29 M 153.30 21.60 L 155.42 23.73 M 481.40 349.70 L 482.81 351.12 M 150.47 23.02 L 152.59 25.14 M 479.98 352.53 L 481.40 353.94 M 147.64 24.43 L 149.76 26.55 M 478.57 355.36 L 479.98 356.77 M 144.81 25.85 L 146.93 27.97 M 477.15 358.19 L 479.27 360.31 M 141.98 27.26 L 143.40 28.68 M 475.74 361.02 L 477.86 363.14 M 139.16 28.68 L 140.57 30.09 M 474.32 363.84 L 476.45 365.97 M 136.33 30.09 L 137.74 31.50 M 472.91 366.67 L 475.03 368.79 M 133.50 31.50 L 134.91 32.92 M 471.50 369.50 L 473.62 371.62 M 130.67 32.92 L 132.08 34.33 M 470.08 372.33 L 472.20 374.45 M 127.84 34.33 L 129.96 36.45 M 468.67 375.16 L 470.08 376.57 M 125.72 36.45 L 127.84 38.58 M 467.25 377.99 L 468.67 379.40 M 122.89 37.87 L 125.01 39.99 M 465.84 380.81 L 466.55 381.52 M 120.77 39.99 L 122.89 42.11 M 464.42 383.64 L 465.13 384.35 M 117.94 41.40 L 120.06 43.52 M 462.30 385.76 L 463.01 386.47 M 115.82 43.52 L 117.94 45.65 M 460.89 388.59 L 461.60 389.30 M 112.99 44.94 L 115.11 47.06 M 458.77 390.71 L 459.48 391.42 M 110.16 46.35 L 112.99 49.18 M 456.65 392.84 L 458.06 394.25 M 108.04 48.47 L 110.87 51.30 M 455.23 395.66 L 455.94 396.37 M 105.21 49.89 L 108.04 52.72 M 453.11 397.79 L 454.53 399.20 M 103.09 52.01 L 105.92 54.84 M 451.70 400.61 L 452.40 401.32 M 100.26 53.42 L 103.09 56.25 M 449.58 402.74 L 450.99 404.15 M 98.14 55.55 L 100.97 58.37 M 447.45 404.86 L 449.58 406.98 M 95.32 56.96 L 98.14 59.79 M 446.04 407.68 L 447.45 409.10 M 93.19 59.08 L 96.02 61.91 M 443.92 409.81 L 445.33 411.22 M 91.07 61.20 L 93.90 64.03 M 442.50 412.63 L 443.21 413.34 M 88.95 63.32 L 91.07 65.45 M 440.38 414.76 L 441.80 416.17 M 86.83 65.45 L 88.95 67.57 M 438.26 416.88 L 439.68 418.29 M 84.71 67.57 L 86.12 68.98 M 436.14 419.00 L 437.55 420.41 M 82.59 69.69 L 84.00 71.10 M 434.02 421.12 L 435.43 422.53 M 80.47 71.81 L 81.17 72.52 M 431.90 423.24 L 433.31 424.66 M 78.34 73.93 L 79.05 74.64 M 429.07 424.66 L 431.19 426.78 M 76.22 76.05 L 76.93 76.76 M 426.95 426.78 L 429.07 428.90 M 74.10 78.17 L 74.81 78.88 M 424.83 428.90 L 427.66 431.73 M 71.98 80.29 L 73.39 81.71 M 422.71 431.02 L 424.83 433.14 M 69.86 82.42 L 71.27 83.83 M 419.88 432.43 L 422.71 435.26 M 67.74 84.54 L 69.15 85.95 M 417.76 434.55 L 419.88 436.68 M 65.62 86.66 L 67.03 88.07 M 415.63 436.68 L 417.76 438.80 M 63.50 88.78 L 65.62 90.90 M 412.81 438.09 L 415.63 440.92 M 61.37 90.90 L 63.50 93.02 M 410.68 440.21 L 412.81 442.33 M 59.25 93.02 L 61.37 95.14 M 408.56 442.33 L 410.68 444.45 M 57.13 95.14 L 59.25 97.26 M 406.44 444.45 L 408.56 446.58 M 55.72 97.97 L 57.13 99.39 M 403.61 445.87 L 405.74 447.99 M 53.60 100.09 L 55.72 102.21 M 401.49 447.99 L 403.61 450.11 M 52.18 102.92 L 53.60 104.34 M 399.37 450.11 L 401.49 452.23 M 50.77 105.75 L 51.47 106.46 M 397.25 452.23 L 398.66 453.65 M 48.65 107.87 L 49.35 108.58 M 394.42 453.65 L 396.54 455.77 M 392.30 455.77 L 394.42 457.89 M 45.11 112.82 L 45.82 113.53 M 390.18 457.89 L 391.59 459.30 M 43.70 115.65 L 44.40 116.36 M 387.35 459.30 L 388.76 460.72 M 42.28 118.48 L 42.99 119.19 M 384.52 460.72 L 385.94 462.13 M 40.16 120.60 L 40.87 121.31 M 381.69 462.13 L 383.11 463.55 M 38.75 123.43 L 39.45 124.13 M 378.86 463.55 L 380.28 464.96 M 36.63 125.55 L 38.04 126.96 M 376.04 464.96 L 377.45 466.37 M 35.21 128.38 L 36.63 129.79 M 373.21 466.37 L 374.62 467.79 M 33.09 130.50 L 35.21 132.62 M 370.38 467.79 L 371.79 469.20 M 31.68 133.33 L 33.80 135.45 M 367.55 469.20 L 368.97 470.62 M 30.26 136.16 L 32.38 138.28 M 365.43 471.32 L 366.14 472.03 M 29.55 139.69 L 30.97 141.11 M 362.60 472.74 L 363.31 473.45 M 28.14 142.52 L 28.85 143.23 M 359.77 474.15 L 360.48 474.86 M 26.73 145.35 L 27.43 146.06 M 356.94 475.57 L 357.65 476.27 M 25.31 148.18 L 26.02 148.88 M 354.12 476.98 L 354.82 477.69 M 23.90 151.01 L 24.60 151.71 M 351.29 478.40 L 351.99 479.10 M 22.48 153.83 L 23.90 155.25 M 347.75 479.10 L 349.17 480.52 M 21.07 156.66 L 22.48 158.08 M 344.22 479.81 L 346.34 481.93 M 20.36 160.20 L 21.78 161.61 M 341.39 481.22 L 342.80 482.64 M 18.95 163.03 L 20.36 164.44 M 337.85 481.93 L 339.97 484.05 M 17.53 165.85 L 19.65 167.98 M 334.32 482.64 L 336.44 484.76 M 16.12 168.68 L 18.24 170.80 M 331.49 484.05 L 332.90 485.47 M 14.71 171.51 L 17.53 174.34 M 327.95 484.76 L 330.07 486.88 M 13.29 174.34 L 16.12 177.17 M 325.12 486.17 L 326.54 487.59 M 12.58 177.88 L 15.41 180.70 M 321.59 486.88 L 323.71 489.00 M 11.88 181.41 L 14.00 183.53 M 318.05 487.59 L 320.18 489.71 M 11.17 184.95 L 13.29 187.07 M 315.23 489.00 L 317.35 491.12 M 10.46 188.48 L 11.88 189.90 M 311.69 489.71 L 313.81 491.83 M 9.76 192.02 L 11.17 193.43 M 308.86 491.12 L 310.28 492.54 M 9.05 195.55 L 9.76 196.26 M 305.33 491.83 L 307.45 493.95 M 8.34 199.09 L 9.05 199.80 M 301.79 492.54 L 303.91 494.66 M 6.93 201.92 L 8.34 203.33 M 297.55 492.54 L 300.38 495.37 M 6.22 205.45 L 7.63 206.87 M 293.31 492.54 L 296.84 496.07 M 5.51 208.99 L 7.63 211.11 M 289.06 492.54 L 293.31 496.78 M 4.81 212.52 L 6.93 214.64 M 284.82 492.54 L 289.77 497.49 M 4.10 216.06 L 6.93 218.89 M 280.58 492.54 L 286.23 498.19 M 3.39 219.59 L 6.93 223.13 M 276.33 492.54 L 282.70 498.90 M 2.68 223.13 L 6.22 226.67 M 272.09 492.54 L 278.46 498.90 M 2.68 227.37 L 6.22 230.91 M 267.85 492.54 L 274.92 499.61 M 2.68 231.62 L 5.51 234.44 M 263.61 492.54 L 270.68 499.61 M 2.68 235.86 L 5.51 238.69 M 259.36 492.54 L 266.43 499.61 M 2.68 240.10 L 4.81 242.22 M 255.12 492.54 L 262.19 499.61 M 2.68 244.34 L 4.81 246.46 M 250.88 492.54 L 257.95 499.61 M 2.68 248.59 L 4.10 250.00 M 246.64 492.54 L 253.71 499.61 M 2.68 252.83 L 4.81 254.95 M 242.39 492.54 L 249.46 499.61 M 2.68 257.07 L 4.81 259.19 M 238.15 492.54 L 245.22 499.61 M 2.68 261.31 L 5.51 264.14 M 233.91 492.54 L 240.98 499.61 M 2.68 265.56 L 5.51 268.38 M 229.67 492.54 L 236.74 499.61 M 2.68 269.80 L 6.22 273.33 M 225.42 492.54 L 232.49 499.61 M 2.68 274.04 L 6.22 277.58 M 221.18 492.54 L 227.54 498.90 M 3.39 278.99 L 6.93 282.53 M 216.94 492.54 L 221.89 497.49 M 4.10 283.94 L 6.93 286.77 M 212.69 492.54 L 216.94 496.78 M 5.51 289.60 L 7.63 291.72 M 208.45 492.54 L 211.28 495.37 M 6.22 294.55 L 8.34 296.67 M 204.21 492.54 L 205.62 493.95 M 7.63 300.20 L 8.34 300.91 M 198.55 491.12 L 200.67 493.24 M 8.34 305.15 L 10.46 307.28 M 192.19 489.00 L 195.02 491.83 M 9.76 310.81 L 12.58 313.64 M 186.53 487.59 L 189.36 490.42 M 11.17 316.47 L 14.71 320.00 M 180.17 485.47 L 184.41 489.71 M 11.88 321.42 L 16.83 326.37 M 173.80 483.35 L 178.75 488.30 M 14.71 328.49 L 18.95 332.73 M 168.15 481.93 L 171.68 485.47 M 18.24 336.27 L 21.07 339.10 M 161.78 479.81 L 165.32 483.35 M 21.78 344.05 L 23.19 345.46 M 156.13 478.40 L 158.95 481.22 M 25.31 351.82 L 27.43 353.94 M 146.93 473.45 L 151.18 477.69 M 28.14 358.89 L 33.09 363.84 M 137.74 468.50 L 141.98 472.74 M 31.68 366.67 L 38.04 373.04 M 128.55 463.55 L 133.50 468.50 M 37.33 376.57 L 42.99 382.23 M 119.36 458.60 L 124.31 463.55 M 46.52 390.01 L 54.30 397.79 M 99.56 443.04 L 115.82 459.30 M 56.42 404.15 L 76.93 424.66 M 79.76 427.48 L 99.56 447.28" fill="none" stroke="#010181" stroke-width="0.5" /><path d="M 452.40 323.54 L 453.11 324.25 M 450.99 326.37 L 453.11 328.49 M 449.58 329.20 L 452.40 332.02 M 448.16 332.02 L 452.40 336.27 M 446.75 334.85 L 451.70 339.80 M 444.63 336.97 L 450.28 342.63 M 443.21 339.80 L 449.58 346.17 M 441.09 341.92 L 448.16 348.99 M 439.68 344.75 L 446.75 351.82 M 437.55 346.87 L 446.04 355.36 M 435.43 348.99 L 444.63 358.19 M 433.31 351.12 L 443.21 361.02 M 431.19 353.24 L 441.09 363.14 M 429.07 355.36 L 439.68 365.97 M 426.95 357.48 L 438.26 368.79 M 424.83 359.60 L 436.85 371.62 M 422.71 361.72 L 435.43 374.45 M 420.58 363.84 L 433.31 376.57 M 417.76 365.26 L 431.19 378.69 M 414.93 366.67 L 429.07 380.81 M 412.10 368.09 L 426.95 382.94 M 409.27 369.50 L 424.83 385.06 M 406.44 370.92 L 422.71 387.18 M 403.61 372.33 L 419.88 388.59 M 400.79 373.74 L 417.05 390.01 M 397.25 374.45 L 414.93 392.13 M 393.01 374.45 L 412.10 393.54 M 389.47 375.16 L 409.98 395.66 M 385.94 375.87 L 407.86 397.79 M 383.11 377.28 L 405.03 399.20 M 380.28 378.69 L 402.20 400.61 M 376.04 378.69 L 399.37 402.03 M 371.79 378.69 L 395.84 402.74 M 367.55 378.69 L 393.01 404.15 M 363.31 378.69 L 389.47 404.86 M 359.07 378.69 L 385.94 405.56 M 355.53 379.40 L 383.11 406.98 M 351.29 379.40 L 379.57 407.68 M 347.05 379.40 L 376.74 409.10 M 339.27 375.86 L 372.50 409.10 M 334.32 375.16 L 368.26 409.10 M 328.66 373.74 L 364.02 409.10 M 323.00 372.33 L 359.77 409.10 M 318.05 371.62 L 355.53 409.10 M 308.86 366.67 L 351.29 409.10 M 303.20 365.26 L 347.05 409.10 M 294.01 360.31 L 342.80 409.10 M 284.11 354.65 L 338.56 409.10 M 273.51 348.29 L 334.32 409.10 M 259.36 338.39 L 329.37 408.39 M 245.22 328.49 L 324.42 407.68 M 231.08 318.59 L 318.76 406.27 M 214.11 305.86 L 313.81 405.56 M 196.43 292.43 L 307.45 403.44 M 185.12 285.36 L 302.50 402.74 M 173.80 278.28 L 296.13 400.61 M 162.49 271.21 L 290.48 399.20 M 151.18 264.14 L 280.58 393.54 M 143.40 260.61 L 274.21 391.42 M 134.91 256.36 L 267.14 388.59 M 127.13 252.83 L 258.66 384.35 M 120.77 250.71 L 246.64 376.57 M 115.11 249.29 L 238.15 372.33 M 106.63 245.05 L 226.84 365.26 M 100.97 243.64 L 214.11 356.77 M 96.02 242.93 L 201.38 348.29 M 91.07 242.22 L 188.65 339.80 M 84.00 239.39 L 179.46 334.85 M 79.05 238.69 L 167.44 327.07 M 74.10 237.98 L 155.42 319.30 M 69.15 237.27 L 144.81 312.93 M 68.45 240.81 L 132.79 305.15 M 69.86 246.46 L 120.06 296.67 M 71.98 252.83 L 106.63 287.48 M 73.39 258.49 L 98.85 283.94 M 76.93 266.26 L 86.83 276.16 M 199.26 172.22 L 202.09 175.05 M 192.90 170.10 L 199.97 177.17 M 187.95 169.39 L 197.85 179.29 M 181.58 167.27 L 195.02 180.70 M 175.22 165.15 L 192.19 182.12 M 168.85 163.03 L 190.07 184.24 M 163.90 162.32 L 187.24 185.65 M 158.95 161.61 L 185.12 187.77 M 153.30 160.20 L 182.29 189.19 M 146.93 158.08 L 179.46 190.60 M 141.98 157.37 L 176.63 192.02 M 139.16 158.78 L 174.51 194.14 M 136.33 160.20 L 171.68 195.55 M 134.21 162.32 L 169.56 197.67 M 131.38 163.73 L 166.73 199.09 M 128.55 165.15 L 164.61 201.21 M 125.72 166.56 L 161.78 202.62 M 123.60 168.68 L 159.66 204.75 M 121.48 170.80 L 156.83 206.16 M 118.65 172.22 L 154.71 208.28 M 116.53 174.34 L 151.18 208.99 M 113.70 175.75 L 149.06 211.11 M 110.87 177.17 L 146.93 213.23 M 108.75 179.29 L 144.11 214.64 M 106.63 181.41 L 141.28 216.06 M 103.09 182.12 L 139.16 218.18 M 100.97 184.24 L 137.03 220.30 M 98.85 186.36 L 134.21 221.72 M 96.02 187.77 L 131.38 223.13 M 93.19 189.19 L 128.55 224.54 M 91.07 191.31 L 126.43 226.67 M 88.95 193.43 L 125.01 229.49 M 86.12 194.85 L 123.60 232.32 M 83.29 196.26 L 121.48 234.44 M 81.17 198.38 L 119.36 236.56 M 78.34 199.80 L 117.94 239.39 M 76.22 201.92 L 110.87 236.56 M 73.39 203.33 L 106.63 236.56 M 71.27 205.45 L 98.85 233.03 M 69.15 207.57 L 93.90 232.32 M 67.74 210.40 L 88.95 231.62 M 66.32 213.23 L 83.29 230.20 M 66.32 217.47 L 79.05 230.20 M 65.62 221.01 L 74.10 229.49 M 65.62 225.25 L 68.45 228.08 M 395.84 197.67 L 437.55 239.39 M 386.64 192.72 L 446.04 252.12 M 371.79 182.12 L 448.87 259.19 M 363.31 177.88 L 450.28 264.85 M 349.87 168.68 L 452.40 271.21 M 336.44 159.49 L 452.40 275.46 M 327.95 155.25 L 452.40 279.70 M 321.59 153.13 L 453.11 284.65 M 312.40 148.18 L 453.11 288.89 M 305.33 145.35 L 453.11 293.13 M 298.25 142.52 L 453.11 297.38 M 292.60 141.11 L 452.40 300.91 M 286.94 139.69 L 451.70 304.45 M 282.70 139.69 L 450.28 307.28 M 279.16 140.40 L 448.87 310.10 M 276.33 141.81 L 447.45 312.93 M 272.80 142.52 L 446.04 315.76 M 269.97 143.93 L 444.63 318.59 M 267.85 146.06 L 443.21 321.42 M 265.73 148.18 L 441.80 324.25 M 262.90 149.59 L 440.38 327.07 M 260.07 151.01 L 439.68 330.61 M 257.95 153.13 L 437.55 332.73 M 255.83 155.25 L 436.14 335.56 M 252.29 155.95 L 434.73 338.39 M 250.17 158.08 L 432.61 340.51 M 248.05 160.20 L 430.48 342.63 M 245.22 161.61 L 428.36 344.75 M 242.39 163.03 L 426.24 346.87 M 240.27 165.15 L 424.12 348.99 M 237.44 166.56 L 422.00 351.12 M 234.62 167.98 L 419.88 353.24 M 232.49 170.10 L 417.76 355.36 M 229.67 171.51 L 415.63 357.48 M 226.84 172.93 L 412.81 358.89 M 224.72 175.05 L 409.27 359.60 M 222.59 177.17 L 407.15 361.72 M 219.77 178.58 L 403.61 362.43 M 216.94 180.00 L 400.08 363.14 M 214.11 181.41 L 397.96 365.26 M 211.99 183.53 L 395.13 366.67 M 209.16 184.95 L 391.59 367.38 M 207.04 187.07 L 388.06 368.09 M 204.21 188.48 L 384.52 368.79 M 201.38 189.90 L 380.28 368.79 M 199.26 192.02 L 376.04 368.79 M 197.14 194.14 L 372.50 369.50 M 194.31 195.55 L 368.97 370.21 M 191.48 196.97 L 364.72 370.21 M 188.65 198.38 L 360.48 370.21 M 186.53 200.50 L 356.24 370.21 M 183.70 201.92 L 351.29 369.50 M 181.58 204.04 L 347.05 369.50 M 178.75 205.45 L 342.10 368.79 M 175.93 206.87 L 336.44 367.38 M 173.80 208.99 L 330.07 365.26 M 171.68 211.11 L 325.83 365.26 M 168.85 212.52 L 317.35 361.02 M 166.73 214.64 L 310.28 358.19 M 164.61 216.77 L 301.79 353.94 M 161.78 218.18 L 292.60 348.99 M 158.95 219.59 L 284.11 344.75 M 156.13 221.01 L 271.38 336.27 M 153.30 222.42 L 257.95 327.07 M 150.47 223.84 L 238.86 312.23 M 148.35 225.96 L 226.13 303.74 M 146.23 228.08 L 207.04 288.89 M 143.40 229.49 L 192.90 278.99 M 141.28 231.62 L 182.29 272.63 M 138.45 233.03 L 170.98 265.56 M 136.33 235.15 L 158.25 257.07 M 134.21 237.27 L 151.18 254.24 M 132.08 239.39 L 141.28 248.59 M 132.08 243.64 L 133.50 245.05 M 265.02 129.08 L 267.14 131.21 M 260.07 128.38 L 265.02 133.33 M 255.83 128.38 L 262.90 135.45 M 249.46 126.26 L 260.07 136.86 M 244.51 125.55 L 257.24 138.28 M 238.86 124.13 L 255.12 140.40 M 234.62 124.13 L 252.29 141.81 M 230.37 124.13 L 249.46 143.23 M 225.42 123.43 L 247.34 145.35 M 221.18 123.43 L 244.51 146.76 M 216.94 123.43 L 242.39 148.88 M 212.69 123.43 L 239.56 150.30 M 208.45 123.43 L 237.44 152.42 M 204.92 124.13 L 233.91 153.13 M 201.38 124.84 L 231.79 155.25 M 197.85 125.55 L 228.96 156.66 M 194.31 126.26 L 226.13 158.08 M 191.48 127.67 L 224.01 160.20 M 187.95 128.38 L 221.89 162.32 M 185.12 129.79 L 219.06 163.73 M 182.29 131.21 L 216.23 165.15 M 179.46 132.62 L 211.99 165.15 M 176.63 134.03 L 204.92 162.32 M 174.51 136.16 L 199.97 161.61 M 171.68 137.57 L 193.60 159.49 M 169.56 139.69 L 187.24 157.37 M 166.73 141.11 L 182.29 156.66 M 163.90 142.52 L 175.93 154.54 M 161.78 144.64 L 169.56 152.42 M 158.95 146.06 L 163.90 151.01 M 156.83 148.18 L 159.66 151.01" fill="none" stroke="#fefec0" stroke-width="0.5" /><path d="M 505.44 288.89 L 506.14 289.60 M 505.44 293.13 L 506.14 293.84 M 504.73 296.67 L 506.14 298.08 M 504.02 300.20 L 506.14 302.33 M 502.61 303.03 L 506.14 306.57 M 501.90 306.57 L 506.14 310.81 M 501.19 310.10 L 506.14 315.05 M 499.78 312.93 L 506.14 319.30 M 499.07 316.47 L 506.14 323.54 M 498.37 320.00 L 506.14 327.78 M 497.66 323.54 L 506.14 332.02 M 496.95 327.07 L 506.14 336.27 M 495.54 329.90 L 506.14 340.51 M 494.12 332.73 L 506.14 344.75 M 492.71 335.56 L 506.14 348.99 M 492.00 339.10 L 506.14 353.24 M 490.59 341.92 L 506.14 357.48 M 489.88 345.46 L 506.14 361.72 M 488.47 348.29 L 506.14 365.97 M 487.05 351.12 L 506.14 370.21 M 485.64 353.94 L 506.14 374.45 M 484.22 356.77 L 506.14 378.69 M 482.81 359.60 L 506.14 382.94 M 481.40 362.43 L 506.14 387.18 M 479.98 365.26 L 506.14 391.42 M 478.57 368.09 L 506.14 395.66 M 477.15 370.92 L 506.14 399.91 M 475.74 373.74 L 506.14 404.15 M 474.32 376.57 L 506.14 408.39 M 472.20 378.69 L 506.14 412.63 M 470.79 381.52 L 506.14 416.88 M 469.37 384.35 L 506.14 421.12 M 467.96 387.18 L 506.14 425.36 M 465.84 389.30 L 506.14 429.61 M 464.42 392.13 L 506.14 433.85 M 462.30 394.25 L 506.14 438.09 M 460.89 397.08 L 506.14 442.33 M 458.77 399.20 L 506.14 446.58 M 457.35 402.03 L 506.14 450.82 M 455.23 404.15 L 506.14 455.06 M 453.11 406.27 L 506.14 459.30 M 450.99 408.39 L 506.14 463.55 M 449.58 411.22 L 506.14 467.79 M 447.45 413.34 L 506.14 472.03 M 445.33 415.46 L 506.14 476.27 M 443.21 417.58 L 506.14 480.52 M 441.80 420.41 L 506.14 484.76 M 439.68 422.53 L 506.14 489.00 M 437.55 424.66 L 506.14 493.24 M 435.43 426.78 L 506.14 497.49 M 433.31 428.90 L 504.02 499.61 M 431.19 431.02 L 499.78 499.61 M 429.07 433.14 L 495.54 499.61 M 426.95 435.26 L 491.29 499.61 M 424.12 436.68 L 487.05 499.61 M 422.00 438.80 L 482.81 499.61 M 419.88 440.92 L 478.57 499.61 M 418.46 443.75 L 474.32 499.61 M 414.93 444.45 L 470.08 499.61 M 412.81 446.58 L 465.84 499.61 M 410.68 448.70 L 461.60 499.61 M 407.86 450.11 L 457.35 499.61 M 405.74 452.23 L 453.11 499.61 M 403.61 454.35 L 448.87 499.61 M 400.79 455.77 L 444.63 499.61 M 398.66 457.89 L 440.38 499.61 M 396.54 460.01 L 436.14 499.61 M 393.71 461.42 L 431.90 499.61 M 390.89 462.84 L 427.66 499.61 M 387.35 463.55 L 423.41 499.61 M 385.23 465.67 L 419.17 499.61 M 382.40 467.08 L 414.93 499.61 M 379.57 468.50 L 410.68 499.61 M 376.74 469.91 L 406.44 499.61 M 374.62 472.03 L 402.20 499.61 M 371.79 473.45 L 397.96 499.61 M 368.97 474.86 L 393.71 499.61 M 366.14 476.27 L 389.47 499.61 M 363.31 477.69 L 385.23 499.61 M 360.48 479.10 L 380.99 499.61 M 357.65 480.52 L 376.74 499.61 M 354.82 481.93 L 372.50 499.61 M 351.99 483.35 L 368.26 499.61 M 348.46 484.05 L 364.02 499.61 M 344.92 484.76 L 359.77 499.61 M 342.10 486.17 L 355.53 499.61 M 338.56 486.88 L 351.29 499.61 M 335.02 487.59 L 347.05 499.61 M 332.20 489.00 L 342.80 499.61 M 329.37 490.42 L 338.56 499.61 M 326.54 491.83 L 334.32 499.61 M 323.00 492.54 L 330.07 499.61 M 319.47 493.24 L 325.83 499.61 M 315.93 493.95 L 321.59 499.61 M 312.40 494.66 L 317.35 499.61 M 309.57 496.07 L 313.10 499.61 M 306.74 497.49 L 308.86 499.61 M 303.20 498.19 L 304.62 499.61 M 299.67 498.90 L 300.38 499.61 M 295.43 498.90 L 296.13 499.61 M 291.18 498.90 L 291.89 499.61 M 0.56 284.65 L 1.27 285.36 M 214.82 498.90 L 215.52 499.61 M 0.56 288.89 L 1.98 290.31 M 210.57 498.90 L 211.28 499.61 M 0.56 293.13 L 4.10 296.67 M 205.62 498.19 L 207.04 499.61 M 0.56 297.38 L 4.10 300.91 M 199.97 496.78 L 202.80 499.61 M 0.56 301.62 L 5.51 306.57 M 193.60 494.66 L 198.55 499.61 M 0.56 305.86 L 7.63 312.93 M 187.95 493.24 L 194.31 499.61 M 0.56 310.10 L 9.05 318.59 M 183.00 492.54 L 190.07 499.61 M 0.56 314.35 L 9.05 322.83 M 177.34 491.12 L 185.82 499.61 M 0.56 318.59 L 12.58 330.61 M 168.85 486.88 L 181.58 499.61 M 0.56 322.83 L 14.71 336.97 M 163.20 485.47 L 177.34 499.61 M 0.56 327.07 L 16.83 343.34 M 157.54 484.05 L 173.10 499.61 M 0.56 331.32 L 21.07 351.82 M 149.06 479.81 L 168.85 499.61 M 0.56 335.56 L 25.31 360.31 M 139.86 474.86 L 164.61 499.61 M 0.56 339.80 L 29.55 368.79 M 129.96 469.20 L 160.37 499.61 M 0.56 344.05 L 34.50 377.99 M 120.77 464.25 L 156.13 499.61 M 0.56 348.29 L 40.87 388.59 M 113.70 461.42 L 151.88 499.61 M 0.56 352.53 L 53.60 405.56 M 96.02 447.99 L 147.64 499.61 M 0.56 356.77 L 143.40 499.61 M 0.56 361.02 L 139.16 499.61 M 0.56 365.26 L 134.91 499.61 M 0.56 369.50 L 130.67 499.61 M 0.56 373.74 L 126.43 499.61 M 0.56 377.99 L 122.19 499.61 M 0.56 382.23 L 117.94 499.61 M 0.56 386.47 L 113.70 499.61 M 0.56 390.71 L 109.46 499.61 M 0.56 394.96 L 105.21 499.61 M 0.56 399.20 L 100.97 499.61 M 0.56 403.44 L 96.73 499.61 M 0.56 407.68 L 92.49 499.61 M 0.56 411.93 L 88.24 499.61 M 0.56 416.17 L 84.00 499.61 M 0.56 420.41 L 79.76 499.61 M 0.56 424.66 L 75.52 499.61 M 0.56 428.90 L 71.27 499.61 M 0.56 433.14 L 67.03 499.61 M 0.56 437.38 L 62.79 499.61 M 0.56 441.63 L 58.55 499.61 M 0.56 445.87 L 54.30 499.61 M 0.56 450.11 L 50.06 499.61 M 0.56 454.35 L 45.82 499.61 M 0.56 458.60 L 41.58 499.61 M 0.56 462.84 L 37.33 499.61 M 0.56 467.08 L 33.09 499.61 M 0.56 471.32 L 28.85 499.61 M 0.56 475.57 L 24.60 499.61 M 0.56 479.81 L 20.36 499.61 M 0.56 484.05 L 16.12 499.61 M 0.56 488.29 L 11.88 499.61 M 0.56 492.54 L 7.63 499.61 M 0.56 496.78 L 3.39 499.61 M 415.63 67.57 L 441.80 93.73 M 399.37 55.55 L 458.77 114.94 M 383.81 44.23 L 464.42 124.84 M 371.09 35.75 L 397.25 61.91 M 446.75 111.41 L 470.08 134.74 M 364.02 32.92 L 385.94 54.84 M 457.35 126.26 L 475.03 143.93 M 356.24 29.38 L 374.62 47.77 M 465.13 138.28 L 479.98 153.13 M 348.46 25.85 L 364.02 41.40 M 467.96 145.35 L 482.10 159.49 M 340.68 22.31 L 356.94 38.58 M 470.08 151.71 L 484.22 165.85 M 334.32 20.19 L 349.87 35.75 M 472.91 158.78 L 487.05 172.93 M 328.66 18.78 L 342.80 32.92 M 475.74 165.85 L 489.17 179.29 M 322.30 16.65 L 335.73 30.09 M 477.86 172.22 L 491.29 185.65 M 316.64 15.24 L 328.66 27.26 M 480.69 179.29 L 493.42 192.02 M 310.28 13.12 L 322.30 25.14 M 483.52 186.36 L 495.54 198.38 M 304.62 11.71 L 316.64 23.73 M 486.35 193.43 L 496.24 203.33 M 299.67 11.00 L 311.69 23.02 M 488.47 199.80 L 496.95 208.28 M 295.43 11.00 L 306.03 21.60 M 490.59 206.16 L 497.66 213.23 M 290.48 10.29 L 301.08 20.90 M 490.59 210.40 L 498.37 218.18 M 285.53 9.58 L 296.13 20.19 M 490.59 214.64 L 499.07 223.13 M 280.58 8.88 L 290.48 18.78 M 490.59 218.89 L 499.78 228.08 M 275.63 8.17 L 285.53 18.07 M 490.59 223.13 L 500.49 233.03 M 271.38 8.17 L 279.87 16.65 M 490.59 227.37 L 501.19 237.98 M 267.14 8.17 L 275.63 16.65 M 490.59 231.62 L 501.19 242.22 M 262.90 8.17 L 271.38 16.65 M 490.59 235.86 L 501.19 246.46 M 258.66 8.17 L 267.14 16.65 M 490.59 240.10 L 501.19 250.71 M 254.41 8.17 L 262.90 16.65 M 490.59 244.34 L 501.19 254.95 M 250.17 8.17 L 258.66 16.65 M 490.59 248.59 L 501.19 259.19 M 245.93 8.17 L 254.41 16.65 M 490.59 252.83 L 501.19 263.44 M 241.69 8.17 L 250.17 16.65 M 490.59 257.07 L 500.49 266.97 M 237.44 8.17 L 245.93 16.65 M 490.59 261.31 L 499.78 270.51 M 233.20 8.17 L 241.69 16.65 M 490.59 265.56 L 499.78 274.75 M 228.96 8.17 L 237.44 16.65 M 490.59 269.80 L 499.07 278.28 M 225.42 8.88 L 233.20 16.65 M 490.59 274.04 L 498.37 281.82 M 221.89 9.58 L 228.96 16.65 M 490.59 278.28 L 497.66 285.36 M 218.35 10.29 L 224.72 16.65 M 490.59 282.53 L 497.66 289.60 M 214.82 11.00 L 220.47 16.65 M 490.59 286.77 L 496.95 293.13 M 211.28 11.71 L 216.94 17.36 M 490.59 291.01 L 496.24 296.67 M 207.75 12.41 L 214.11 18.78 M 490.59 295.25 L 495.54 300.20 M 204.21 13.12 L 210.57 19.48 M 489.88 298.79 L 494.83 303.74 M 200.67 13.83 L 207.04 20.19 M 488.47 301.62 L 494.12 307.28 M 197.14 14.53 L 203.50 20.90 M 487.76 305.15 L 493.42 310.81 M 193.60 15.24 L 200.67 22.31 M 487.05 308.69 L 492.00 313.64 M 190.07 15.95 L 197.14 23.02 M 485.64 311.52 L 491.29 317.18 M 186.53 16.65 L 193.60 23.73 M 484.93 315.05 L 490.59 320.71 M 183.00 17.36 L 190.07 24.43 M 484.22 318.59 L 489.88 324.25 M 179.46 18.07 L 187.24 25.85 M 482.81 321.42 L 488.47 327.07 M 176.63 19.48 L 183.70 26.55 M 482.10 324.95 L 487.05 329.90 M 173.10 20.19 L 180.17 27.26 M 481.40 328.49 L 485.64 332.73 M 170.27 21.60 L 176.63 27.97 M 479.98 331.32 L 484.22 335.56 M 167.44 23.02 L 173.80 29.38 M 478.57 334.15 L 482.81 338.39 M 164.61 24.43 L 170.27 30.09 M 477.15 336.97 L 481.40 341.22 M 161.08 25.14 L 166.73 30.80 M 475.74 339.80 L 479.98 344.05 M 158.25 26.55 L 163.20 31.50 M 474.32 342.63 L 478.57 346.87 M 155.42 27.97 L 160.37 32.92 M 472.91 345.46 L 477.15 349.70 M 151.88 28.68 L 157.54 34.33 M 471.50 348.29 L 475.74 352.53 M 149.06 30.09 L 154.71 35.75 M 470.08 351.12 L 475.03 356.07 M 146.23 31.50 L 151.88 37.16 M 468.67 353.94 L 473.62 358.89 M 143.40 32.92 L 149.06 38.58 M 467.25 356.77 L 472.20 361.72 M 139.86 33.63 L 146.93 40.70 M 465.84 359.60 L 470.79 364.55 M 137.03 35.04 L 144.11 42.11 M 464.42 362.43 L 469.37 367.38 M 134.21 36.45 L 141.28 43.52 M 463.01 365.26 L 467.96 370.21 M 131.38 37.87 L 138.45 44.94 M 461.60 368.09 L 466.55 373.04 M 129.26 39.99 L 135.62 46.35 M 460.18 370.92 L 465.13 375.87 M 126.43 41.40 L 132.79 47.77 M 458.06 373.04 L 463.72 378.69 M 123.60 42.82 L 129.96 49.18 M 456.65 375.87 L 462.30 381.52 M 121.48 44.94 L 127.84 51.30 M 455.23 378.69 L 460.18 383.64 M 118.65 46.35 L 125.01 52.72 M 453.11 380.81 L 458.77 386.47 M 115.82 47.77 L 122.19 54.13 M 451.70 383.64 L 456.65 388.59 M 113.70 49.89 L 119.36 55.55 M 449.58 385.76 L 455.23 391.42 M 111.58 52.01 L 117.24 57.67 M 448.16 388.59 L 453.11 393.54 M 108.75 53.42 L 115.11 59.79 M 446.04 390.71 L 450.99 395.66 M 106.63 55.55 L 112.29 61.20 M 444.63 393.54 L 449.58 398.49 M 104.51 57.67 L 110.16 63.32 M 442.50 395.66 L 447.45 400.61 M 101.68 59.08 L 107.34 64.74 M 440.38 397.79 L 446.04 403.44 M 99.56 61.20 L 105.21 66.86 M 438.97 400.61 L 443.92 405.56 M 97.44 63.32 L 103.09 68.98 M 436.85 402.74 L 441.80 407.68 M 95.32 65.45 L 100.26 70.39 M 434.73 404.86 L 440.38 410.51 M 92.49 66.86 L 98.14 72.52 M 432.61 406.98 L 438.26 412.63 M 90.37 68.98 L 95.32 73.93 M 429.78 408.39 L 436.85 415.46 M 88.24 71.10 L 93.19 76.05 M 427.66 410.51 L 434.02 416.88 M 85.42 72.52 L 91.07 78.17 M 425.53 412.63 L 431.90 419.00 M 83.29 74.64 L 88.24 79.59 M 423.41 414.76 L 429.78 421.12 M 81.17 76.76 L 86.12 81.71 M 421.29 416.88 L 426.95 422.53 M 79.05 78.88 L 84.00 83.83 M 418.46 418.29 L 424.83 424.66 M 76.93 81.00 L 82.59 86.66 M 416.34 420.41 L 422.71 426.78 M 74.81 83.12 L 80.47 88.78 M 414.22 422.53 L 420.58 428.90 M 73.39 85.95 L 78.34 90.90 M 412.10 424.66 L 417.76 430.31 M 71.27 88.07 L 76.93 93.73 M 409.98 426.78 L 415.63 432.43 M 69.15 90.19 L 74.81 95.85 M 130.67 151.71 L 131.38 152.42 M 407.15 428.19 L 413.51 434.55 M 67.03 92.32 L 73.39 98.68 M 123.60 148.88 L 128.55 153.83 M 405.03 430.31 L 411.39 436.68 M 65.62 95.14 L 71.27 100.80 M 117.24 146.76 L 125.72 155.25 M 402.91 432.43 L 408.56 438.09 M 63.50 97.26 L 69.15 102.92 M 110.16 143.93 L 122.89 156.66 M 400.79 434.55 L 406.44 440.21 M 61.37 99.39 L 67.74 105.75 M 103.09 141.11 L 118.65 156.66 M 398.66 436.68 L 404.32 442.33 M 59.25 101.51 L 65.62 107.87 M 98.85 141.11 L 113.70 155.95 M 395.84 438.09 L 401.49 443.75 M 57.13 103.63 L 64.20 110.70 M 93.90 140.40 L 108.04 154.54 M 393.71 440.21 L 399.37 445.87 M 55.72 106.46 L 62.08 112.82 M 88.95 139.69 L 103.09 153.83 M 391.59 442.33 L 397.25 447.99 M 53.60 108.58 L 59.96 114.94 M 84.00 138.98 L 98.14 153.13 M 389.47 444.45 L 395.13 450.11 M 51.47 110.70 L 58.55 117.77 M 79.76 138.98 L 92.49 151.71 M 386.64 445.87 L 392.30 451.53 M 49.35 112.82 L 56.42 119.89 M 74.81 138.28 L 87.54 151.01 M 383.81 447.28 L 390.18 453.65 M 47.94 115.65 L 54.30 122.01 M 69.86 137.57 L 82.59 150.30 M 380.99 448.70 L 387.35 455.06 M 46.52 118.48 L 52.89 124.84 M 64.91 136.86 L 76.93 148.88 M 378.16 450.11 L 384.52 456.48 M 45.11 121.31 L 50.77 126.96 M 59.96 136.16 L 71.98 148.18 M 375.33 451.53 L 382.40 458.60 M 43.70 124.13 L 49.35 129.79 M 51.47 131.91 L 67.03 147.47 M 372.50 452.94 L 379.57 460.01 M 42.28 126.96 L 61.37 146.06 M 369.67 454.35 L 376.74 461.42 M 40.16 129.08 L 56.42 145.35 M 367.55 456.48 L 373.92 462.84 M 38.75 131.91 L 51.47 144.64 M 364.72 457.89 L 371.09 464.25 M 37.33 134.74 L 45.82 143.23 M 361.89 459.30 L 368.26 465.67 M 35.92 137.57 L 40.87 142.52 M 359.07 460.72 L 365.43 467.08 M 34.50 140.40 L 39.45 145.35 M 356.24 462.13 L 362.60 468.50 M 33.09 143.23 L 38.04 148.18 M 353.41 463.55 L 359.77 469.91 M 31.68 146.06 L 37.33 151.71 M 350.58 464.96 L 357.65 472.03 M 29.55 148.18 L 35.92 154.54 M 347.75 466.37 L 354.82 473.45 M 28.85 151.71 L 34.50 157.37 M 344.92 467.79 L 351.99 474.86 M 27.43 154.54 L 33.80 160.90 M 342.10 469.20 L 348.46 475.57 M 26.73 158.08 L 32.38 163.73 M 338.56 469.91 L 344.92 476.27 M 25.31 160.90 L 31.68 167.27 M 335.73 471.32 L 342.10 477.69 M 23.90 163.73 L 30.26 170.10 M 332.20 472.03 L 338.56 478.40 M 23.19 167.27 L 29.55 173.63 M 328.66 472.74 L 335.73 479.81 M 21.78 170.10 L 28.14 176.46 M 325.83 474.15 L 332.20 480.52 M 21.07 173.63 L 26.73 179.29 M 322.30 474.86 L 329.37 481.93 M 19.65 176.46 L 26.02 182.82 M 319.47 476.27 L 325.83 482.64 M 18.24 179.29 L 24.60 185.65 M 315.93 476.98 L 322.30 483.35 M 17.53 182.82 L 23.90 189.19 M 312.40 477.69 L 319.47 484.76 M 16.12 185.65 L 22.48 192.02 M 309.57 479.10 L 315.93 485.47 M 15.41 189.19 L 21.07 194.85 M 306.03 479.81 L 313.10 486.88 M 14.00 192.02 L 20.36 198.38 M 303.20 481.22 L 309.57 487.59 M 13.29 195.55 L 18.95 201.21 M 298.96 481.22 L 306.03 488.30 M 12.58 199.09 L 18.24 204.75 M 294.72 481.22 L 302.50 489.00 M 11.88 202.62 L 17.53 208.28 M 290.48 481.22 L 298.96 489.71 M 11.17 206.16 L 16.83 211.82 M 286.23 481.22 L 294.72 489.71 M 11.17 210.40 L 16.83 216.06 M 281.99 481.22 L 291.18 490.42 M 10.46 213.94 L 16.12 219.59 M 277.75 481.22 L 287.65 491.12 M 9.76 217.47 L 16.12 223.84 M 273.51 481.22 L 284.11 491.83 M 9.05 221.01 L 15.41 227.37 M 269.26 481.22 L 279.87 491.83 M 8.34 224.54 L 15.41 231.62 M 265.02 481.22 L 276.33 492.54 M 8.34 228.79 L 14.71 235.15 M 260.78 481.22 L 272.09 492.54 M 8.34 233.03 L 14.71 239.39 M 256.54 481.22 L 267.85 492.54 M 8.34 237.27 L 14.00 242.93 M 252.29 481.22 L 263.61 492.54 M 8.34 241.51 L 14.00 247.17 M 248.05 481.22 L 259.36 492.54 M 8.34 245.76 L 13.29 250.71 M 243.81 481.22 L 255.12 492.54 M 8.34 250.00 L 14.00 255.66 M 239.56 481.22 L 250.88 492.54 M 8.34 254.24 L 14.00 259.90 M 235.32 481.22 L 246.64 492.54 M 8.34 258.49 L 14.71 264.85 M 231.08 481.22 L 242.39 492.54 M 8.34 262.73 L 14.71 269.09 M 226.84 481.22 L 238.15 492.54 M 8.34 266.97 L 15.41 274.04 M 222.59 481.22 L 233.91 492.54 M 8.34 271.21 L 15.41 278.28 M 218.35 481.22 L 229.67 492.54 M 8.34 275.46 L 16.12 283.23 M 214.11 481.22 L 224.72 491.83 M 9.05 280.41 L 16.83 288.18 M 209.87 481.22 L 219.06 490.42 M 9.76 285.36 L 16.83 292.43 M 205.62 481.22 L 214.11 489.71 M 10.46 290.31 L 17.53 297.38 M 199.97 479.81 L 209.16 489.00 M 11.17 295.25 L 19.65 303.74 M 193.60 477.69 L 203.50 487.59 M 11.88 300.20 L 21.78 310.10 M 187.24 475.57 L 198.55 486.88 M 13.29 305.86 L 23.90 316.47 M 181.58 474.15 L 192.90 485.47 M 15.41 312.23 L 26.02 322.83 M 175.22 472.03 L 187.95 484.76 M 16.83 317.88 L 28.14 329.20 M 168.85 469.91 L 183.00 484.05 M 18.24 323.54 L 30.26 335.56 M 162.49 467.79 L 176.63 481.93 M 21.78 331.32 L 33.09 342.63 M 154.71 464.25 L 169.56 479.10 M 24.60 338.39 L 38.04 351.82 M 145.52 459.30 L 161.78 475.57 M 27.43 345.46 L 43.70 361.72 M 135.62 453.65 L 154.71 472.74 M 30.97 353.24 L 48.65 370.92 M 126.43 448.70 L 147.64 469.91 M 33.80 360.31 L 53.60 380.11 M 112.29 438.80 L 140.57 467.08 M 37.33 368.09 L 76.93 407.68 M 91.07 421.83 L 130.67 461.42 M 44.40 379.40 L 116.53 451.53 M 55.72 394.96 L 103.09 442.33 M 502.61 0.39 L 506.14 3.93 M 498.37 0.39 L 506.14 8.17 M 494.12 0.39 L 506.14 12.41 M 489.88 0.39 L 506.14 16.65 M 485.64 0.39 L 506.14 20.90 M 481.40 0.39 L 506.14 25.14 M 477.15 0.39 L 506.14 29.38 M 472.91 0.39 L 506.14 33.63 M 468.67 0.39 L 506.14 37.87 M 464.42 0.39 L 506.14 42.11 M 460.18 0.39 L 506.14 46.35 M 455.94 0.39 L 506.14 50.60 M 451.70 0.39 L 506.14 54.84 M 447.45 0.39 L 506.14 59.08 M 443.21 0.39 L 506.14 63.32 M 438.97 0.39 L 506.14 67.57 M 434.73 0.39 L 506.14 71.81 M 430.48 0.39 L 506.14 76.05 M 426.24 0.39 L 506.14 80.29 M 422.00 0.39 L 506.14 84.54 M 417.76 0.39 L 506.14 88.78 M 413.51 0.39 L 506.14 93.02 M 409.27 0.39 L 506.14 97.26 M 405.03 0.39 L 506.14 101.51 M 400.79 0.39 L 506.14 105.75 M 396.54 0.39 L 506.14 109.99 M 392.30 0.39 L 506.14 114.24 M 388.06 0.39 L 506.14 118.48 M 383.81 0.39 L 506.14 122.72 M 379.57 0.39 L 506.14 126.96 M 375.33 0.39 L 506.14 131.21 M 371.09 0.39 L 506.14 135.45 M 366.84 0.39 L 506.14 139.69 M 362.60 0.39 L 506.14 143.93 M 358.36 0.39 L 409.27 51.30 M 458.06 100.09 L 506.14 148.18 M 354.12 0.39 L 392.30 38.58 M 467.96 114.24 L 506.14 152.42 M 349.87 0.39 L 383.11 33.63 M 475.03 125.55 L 506.14 156.66 M 345.63 0.39 L 373.92 28.68 M 479.98 134.74 L 506.14 160.90 M 341.39 0.39 L 365.43 24.43 M 484.22 143.23 L 506.14 165.15 M 337.15 0.39 L 356.24 19.48 M 488.47 151.71 L 506.14 169.39 M 332.90 0.39 L 349.17 16.65 M 490.59 158.08 L 506.14 173.63 M 328.66 0.39 L 343.51 15.24 M 492.71 164.44 L 506.14 177.88 M 324.42 0.39 L 337.15 13.12 M 496.95 172.93 L 506.14 182.12 M 320.18 0.39 L 331.49 11.71 M 498.37 178.58 L 506.14 186.36 M 315.93 0.39 L 323.71 8.17 M 499.78 184.24 L 506.14 190.60 M 311.69 0.39 L 318.76 7.46 M 501.19 189.90 L 506.14 194.85 M 307.45 0.39 L 313.10 6.05 M 502.61 195.55 L 506.14 199.09 M 303.20 0.39 L 307.45 4.63 M 504.73 201.92 L 506.14 203.33 M 298.96 0.39 L 301.08 2.51 M 504.73 206.16 L 506.14 207.57 M 294.72 0.39 L 296.13 1.81 M 505.44 211.11 L 506.14 211.82 M 290.48 0.39 L 291.18 1.10 M 286.23 0.39 L 286.94 1.10 M 218.35 0.39 L 219.06 1.10 M 214.11 0.39 L 214.82 1.10 M 209.87 0.39 L 211.28 1.81 M 205.62 0.39 L 208.45 3.22 M 201.38 0.39 L 204.21 3.22 M 197.14 0.39 L 200.67 3.93 M 192.90 0.39 L 197.85 5.34 M 188.65 0.39 L 194.31 6.05 M 184.41 0.39 L 190.77 6.76 M 180.17 0.39 L 187.24 7.46 M 175.93 0.39 L 183.70 8.17 M 171.68 0.39 L 180.17 8.88 M 167.44 0.39 L 177.34 10.29 M 163.20 0.39 L 174.51 11.71 M 158.95 0.39 L 171.68 13.12 M 154.71 0.39 L 168.15 13.83 M 150.47 0.39 L 164.61 14.53 M 146.23 0.39 L 161.78 15.95 M 141.98 0.39 L 158.25 16.65 M 137.74 0.39 L 154.71 17.36 M 133.50 0.39 L 151.88 18.78 M 129.26 0.39 L 149.76 20.90 M 125.01 0.39 L 146.93 22.31 M 120.77 0.39 L 144.11 23.73 M 116.53 0.39 L 141.28 25.14 M 112.29 0.39 L 138.45 26.55 M 108.04 0.39 L 135.62 27.97 M 103.80 0.39 L 132.08 28.68 M 99.56 0.39 L 129.26 30.09 M 95.32 0.39 L 127.13 32.21 M 91.07 0.39 L 124.31 33.63 M 86.83 0.39 L 121.48 35.04 M 82.59 0.39 L 119.36 37.16 M 78.34 0.39 L 116.53 38.58 M 74.10 0.39 L 113.70 39.99 M 69.86 0.39 L 110.87 41.40 M 65.62 0.39 L 108.04 42.82 M 61.37 0.39 L 105.92 44.94 M 57.13 0.39 L 103.80 47.06 M 52.89 0.39 L 100.97 48.47 M 48.65 0.39 L 98.85 50.60 M 44.40 0.39 L 96.73 52.72 M 40.16 0.39 L 94.61 54.84 M 35.92 0.39 L 91.78 56.25 M 31.68 0.39 L 89.66 58.37 M 27.43 0.39 L 87.54 60.50 M 23.19 0.39 L 85.42 62.62 M 18.95 0.39 L 82.59 64.03 M 14.71 0.39 L 80.47 66.15 M 10.46 0.39 L 78.34 68.27 M 6.22 0.39 L 76.22 70.39 M 1.98 0.39 L 73.39 71.81 M 0.56 3.22 L 71.98 74.64 M 0.56 7.46 L 69.86 76.76 M 0.56 11.71 L 67.74 78.88 M 0.56 15.95 L 65.62 81.00 M 0.56 20.19 L 64.20 83.83 M 0.56 24.43 L 62.08 85.95 M 0.56 28.68 L 59.96 88.07 M 0.56 32.92 L 57.84 90.19 M 0.56 37.16 L 55.72 92.32 M 0.56 41.40 L 54.30 95.14 M 0.56 45.65 L 52.18 97.26 M 0.56 49.89 L 50.06 99.39 M 0.56 54.13 L 48.65 102.21 M 0.56 58.37 L 46.52 104.34 M 0.56 62.62 L 45.11 107.16 M 0.56 66.86 L 42.99 109.29 M 0.56 71.10 L 41.58 112.11 M 0.56 75.34 L 40.16 114.94 M 0.56 79.59 L 38.04 117.06 M 0.56 83.83 L 36.63 119.89 M 0.56 88.07 L 34.50 122.01 M 0.56 92.32 L 33.09 124.84 M 0.56 96.56 L 31.68 127.67 M 0.56 100.80 L 29.55 129.79 M 0.56 105.04 L 28.85 133.33 M 0.56 109.29 L 27.43 136.16 M 0.56 113.53 L 26.02 138.98 M 0.56 117.77 L 24.60 141.81 M 0.56 122.01 L 23.19 144.64 M 0.56 126.26 L 21.78 147.47 M 0.56 130.50 L 20.36 150.30 M 0.56 134.74 L 18.95 153.13 M 0.56 138.98 L 17.53 155.95 M 0.56 143.23 L 16.12 158.78 M 0.56 147.47 L 16.12 163.03 M 0.56 151.71 L 14.71 165.85 M 0.56 155.95 L 13.29 168.68 M 0.56 160.20 L 11.88 171.51 M 0.56 164.44 L 10.46 174.34 M 0.56 168.68 L 9.05 177.17 M 0.56 172.93 L 9.05 181.41 M 0.56 177.17 L 8.34 184.95 M 0.56 181.41 L 7.63 188.48 M 0.56 185.65 L 6.22 191.31 M 0.56 189.90 L 5.51 194.85 M 0.56 194.14 L 4.81 198.38 M 0.56 198.38 L 4.10 201.92 M 0.56 202.62 L 4.10 206.16 M 0.56 206.87 L 1.98 208.28 M 0.56 211.11 L 1.98 212.52 M 0.56 215.35 L 1.27 216.06" fill="none" stroke="#fefefe" stroke-width="0.5" /></svg>